<svg width="198" height="58" viewBox="0 0 198 58" fill="none" xmlns="http://www.w3.org/2000/svg">
<path fill-rule="evenodd" clip-rule="evenodd" d="M117.698 44.5929C116.373 45.6105 114.948 46.5272 113.523 47.342V43.0669C114.335 42.7614 115.253 42.3539 116.068 42.0493C117.899 41.2345 119.533 43.2716 117.696 44.5929H117.698ZM127.368 37.4649C127.368 36.65 127.165 36.0389 126.961 35.7343C126.045 34.6138 119.325 33.5953 113.523 35.3259V38.4815C117.086 38.1769 121.259 38.0741 122.28 39.3954C123.705 41.126 120.651 48.6595 119.326 51.917C118.919 52.9355 119.84 53.3448 120.754 52.6309C125.335 48.7623 127.269 41.7371 127.371 38.0712V37.4668L127.368 37.4649ZM113.523 47.3411C102.832 53.7551 88.9858 57.1154 76.9725 57.1154C57.6285 57.1154 40.3206 49.9893 27.1869 38.0769C26.0675 37.1612 26.9832 35.8371 28.3073 36.5501C42.4596 44.7937 59.9683 49.7818 78.0929 49.7846C89.496 49.7846 101.815 47.6476 113.523 43.065V47.3411H113.523ZM113.523 35.323C111.962 35.807 110.485 36.5285 109.144 37.462C108.127 38.174 108.33 39.0898 109.344 38.9889C110.464 38.7852 111.889 38.6833 113.519 38.4796V35.3278L113.523 35.323Z" fill="#A3A3A3"/>
<path fill-rule="evenodd" clip-rule="evenodd" d="M194.828 6.92334V6.41501C195.163 6.41819 195.496 6.35451 195.806 6.22771C196.116 6.1009 196.398 5.91351 196.635 5.6765C196.872 5.43948 197.059 5.1576 197.186 4.84734C197.312 4.53708 197.376 4.20468 197.373 3.86957C197.373 2.44359 196.151 1.32413 194.828 1.32413V0.815798C196.456 0.815798 197.884 2.13897 197.884 3.86957C197.882 5.49926 196.458 6.92715 194.83 6.92715L194.828 6.92334ZM194.828 4.17418H194.929C195.133 4.17418 195.234 4.27889 195.234 4.47975C195.234 4.58446 195.338 5.3936 195.434 5.60016H196.146C196.019 5.31073 195.95 4.99936 195.942 4.68346C195.841 4.27604 195.841 3.97047 195.331 3.86957C195.636 3.76866 196.043 3.66586 196.043 3.05567C196.043 2.13897 195.229 2.13897 194.822 2.13897V2.64825C195.026 2.64825 195.327 2.64825 195.327 3.15753C195.327 3.36124 195.225 3.66681 194.819 3.66681V4.17418H194.828ZM194.828 0.814847V1.32317C193.403 1.32317 192.181 2.44264 192.181 3.86862C192.181 5.2965 193.399 6.41025 194.827 6.41406V6.92239C193.096 6.92239 191.672 5.59921 191.672 3.86862C191.672 2.13802 193.096 0.815799 194.83 0.814847H194.828ZM194.828 2.13802H193.606V5.60016H194.319V4.17418H194.828V3.66586H194.319V2.64825H194.828V2.13802ZM147.831 33.699V27.5905C152.211 27.4887 152.413 21.1765 152.413 17.4097C152.413 14.8643 152.312 11.8096 151.497 9.36597C150.886 7.32981 149.665 6.51496 147.83 6.41406V0.304617C156.383 0.409328 161.071 7.84385 161.071 17.306C161.069 26.4701 155.877 33.6 147.834 33.699H147.831ZM172.369 33.0888H166.566C165.954 32.987 165.445 32.5796 165.445 31.9684V1.93431C165.547 1.32317 165.954 0.916703 166.566 0.916703H172.064C172.572 0.916703 172.978 1.32603 173.082 1.83245V6.41406H173.184C174.812 2.23988 177.155 0.304617 181.226 0.304617C183.772 0.304617 186.414 1.21846 188.051 3.86862C189.578 6.31506 189.575 10.2846 189.575 13.2355V32.0703C189.475 32.5786 189.066 33.0879 188.455 33.0879H182.55C182.042 32.986 181.533 32.5786 181.533 32.0703V15.8828C181.533 12.5225 181.94 7.73818 177.867 7.73818C176.442 7.73818 175.118 8.65393 174.406 10.1808C173.592 12.0133 173.489 13.8467 173.489 15.8819V31.9675C173.489 32.5815 172.983 33.086 172.365 33.0888H172.369ZM109.654 6.21035V1.93431C109.654 1.32317 110.163 0.814847 110.774 0.814847H130.017C130.628 0.814847 131.14 1.31937 131.14 1.93431V5.60016C131.14 6.21035 130.631 7.02519 129.715 8.34932L119.733 22.6015C123.399 22.5006 127.367 23.1155 130.728 24.9442C131.44 25.4487 131.641 26.0675 131.746 26.6738V31.1536C131.746 31.7638 131.034 32.4777 130.321 32.1712C124.314 29.0156 116.475 28.709 109.959 32.1712C109.247 32.5786 108.534 31.7628 108.534 31.1536V26.8775C108.534 26.2664 108.534 25.0441 109.247 23.9247L120.852 7.32885H110.773C110.163 7.32695 109.652 6.92714 109.652 6.21035H109.654ZM147.831 0.304617V6.41406C143.455 6.41406 143.25 12.3188 143.25 15.9847C143.25 19.7515 143.149 27.5886 147.734 27.5905H147.829V33.699H147.729C139.177 33.699 134.494 26.2664 134.494 17.0023C134.494 7.63538 139.278 0.304617 147.729 0.304617C147.831 0.301761 147.834 0.301761 147.834 0.304617H147.831ZM89.9025 32.986V27.5905C91.2256 27.285 92.3461 26.3683 93.16 24.9442C94.2804 22.9071 94.2804 21.0756 94.2804 18.7338V17.5125C92.7535 17.5125 91.2256 17.6134 89.9025 17.92V13.2365C91.4294 13.0318 92.9562 12.9309 94.2804 12.8291V12.0142C94.2804 10.5892 94.3813 8.96045 93.5674 7.73913C92.8544 6.72058 91.4294 6.2113 90.208 6.2113H89.9025V0.000953216H91.1209C93.971 0.000953216 97.6321 0.819606 99.8786 2.95382C102.729 5.60016 102.525 9.16036 102.525 13.0318V22.196C102.525 24.947 103.648 26.1655 104.667 27.5934C105.075 28.0979 105.181 28.7167 104.667 29.1203C103.547 30.1388 101.408 31.9713 100.187 32.9889C99.7796 33.2945 99.2713 33.2945 98.763 33.0936C96.8277 31.4649 96.5221 30.7519 95.4036 29.225C93.4665 31.2583 91.832 32.372 89.8996 32.986H89.9025ZM89.9025 0V6.21035C87.7635 6.41406 86.0339 7.53447 85.5236 9.77435C85.4227 10.2836 85.0144 10.792 84.506 10.8948L78.804 10.1818C78.2947 10.0799 77.7864 9.77435 77.9901 8.9595C79.2124 2.5483 84.6069 0.30176 89.8996 0H89.9025ZM89.9025 13.2355V17.919C87.4589 18.631 85.5236 20.1579 85.5236 23.4116C85.5236 25.9532 86.8468 27.6857 89.0838 27.6876C89.3894 27.6876 89.5941 27.5867 89.8987 27.5867V32.9822C88.5341 33.3265 87.1318 33.4991 85.7245 33.4963C80.8373 33.4963 76.9687 30.4425 76.9687 24.434C76.9687 19.6496 79.5141 16.3912 83.179 14.8643C85.1181 13.9428 87.5579 13.543 89.8996 13.2355H89.9025ZM12.9328 32.986V27.5905C14.2579 27.285 15.4792 26.3683 16.1922 24.9442C17.4126 22.9071 17.3117 21.0756 17.3117 18.7338V17.5125C15.7848 17.5125 14.2579 17.6134 12.9328 17.92V13.2365C14.4607 13.0318 15.9875 12.9309 17.3117 12.8291V12.0142C17.3117 10.5892 17.4126 8.96045 16.5996 7.73913C15.8866 6.72058 14.5625 6.2113 13.3412 6.2113H12.9328V0.000953216H14.1513C17.0023 0.000953216 20.6624 0.819607 23.0042 2.95192C25.8552 5.59826 25.5458 9.15845 25.5458 13.0299V22.1941C25.5458 24.9451 26.6691 26.1636 27.7828 27.5896C28.0874 28.0941 28.1922 28.709 27.681 29.1127C26.5615 30.1312 24.4244 31.9637 23.2012 32.9813C22.7938 33.2868 22.2845 33.2868 21.7762 33.0831C19.8419 31.4544 19.5363 30.7414 18.4169 29.2145C16.4978 31.2583 14.869 32.372 12.9366 32.986H12.9328ZM39.303 33.0888H33.3982C32.7871 32.987 32.3797 32.5796 32.3797 32.0712V2.03616C32.3797 1.42503 32.8899 0.916703 33.501 0.916703H38.8956C39.5067 0.916703 40.0188 1.42122 40.0188 1.93431V5.90478H40.1207C41.5467 2.03616 44.193 0.304617 47.8598 0.304617C51.5238 0.304617 53.8665 2.03712 55.4943 5.90478C56.9193 2.03616 60.0749 0.304617 63.5371 0.304617C66.0825 0.304617 68.7346 1.32317 70.3624 3.56019C72.1948 6.10183 71.8854 9.76673 71.8854 13.028V31.9656C71.8854 32.5767 71.3762 33.086 70.6641 33.086H64.8602C64.2491 32.9841 63.8417 32.5767 63.8417 31.9656V16.0856C63.8417 14.8643 63.9435 11.6058 63.638 10.4864C63.2305 8.44927 61.9074 7.83909 60.1768 7.83909C58.7508 7.83909 57.3258 8.75484 56.7146 10.2855C56.1044 11.8124 56.1044 14.3579 56.1044 16.0884V31.9713C56.1044 32.5824 55.5942 33.0917 54.984 33.0917H49.0783C48.57 32.9898 48.0607 32.5824 48.0607 31.9713V16.0856C48.0607 12.7263 48.57 7.73723 44.4976 7.73723C40.2226 7.73723 40.4244 12.6244 40.4244 16.0856V31.9684C40.4212 32.2644 40.3022 32.5474 40.093 32.7568C39.8838 32.9662 39.6009 33.0854 39.3049 33.0888H39.303ZM12.9328 0V6.21035C10.8976 6.41406 9.06516 7.53447 8.55589 9.77435C8.45403 10.2836 8.14846 10.792 7.53733 10.8948L1.83626 10.1818C1.42979 10.0799 0.818654 9.77435 1.02237 8.9595C2.24368 2.5483 7.73913 0.30176 12.9366 0H12.9328ZM12.9328 13.2355V17.919C10.4902 18.631 8.55589 20.1579 8.55589 23.4154C8.55589 25.957 9.87906 27.6895 12.1161 27.6914C12.4207 27.6914 12.7263 27.5905 12.929 27.5905V32.986C11.5649 33.3309 10.1628 33.502 8.75579 33.4953C3.86862 33.4953 0 30.4415 0 24.433C0 19.6486 2.54544 16.3902 6.3122 14.8633C8.25032 13.9428 10.5949 13.543 12.9366 13.2355H12.9328Z" fill="#838383"/>
</svg>
