<svg width="97" height="82" viewBox="0 0 97 82" fill="none" xmlns="http://www.w3.org/2000/svg">
<path d="M64.2069 6.12621C63.7819 6.04991 63.3442 6.47044 63.4218 6.90014C63.5794 7.76071 64.0545 8.52317 64.2271 9.37914C64.4042 10.2655 64.234 11.1737 64.3939 12.0543C64.4963 12.6189 65.0939 12.8736 65.5742 12.5586C67.7702 11.1175 66.7556 6.57829 64.2069 6.12621Z" fill="white"/>
<path d="M63.3989 13.9187C63.2234 14.1165 63.0253 14.2932 62.8088 14.4453C62.5983 14.6048 62.3918 14.7844 62.1531 14.9009C61.6642 15.1384 61.8016 15.9703 62.4021 15.871C62.8496 15.7964 63.2776 15.6415 63.5997 15.3122C63.8988 15.0047 64.0535 14.6473 64.1542 14.2359C64.2571 13.8057 63.6434 13.6198 63.3989 13.9187Z" fill="white"/>
<path d="M11.8134 12.5478C11.1077 12.5364 10.6251 12.5318 10.1115 13.0911C9.63635 13.6075 9.50866 14.2489 9.58343 14.9322C9.63117 15.3653 10.284 15.6 10.5429 15.1972C10.7821 14.8243 11.0893 14.4916 11.3481 14.1295C11.4896 13.9305 11.6495 13.7452 11.7352 13.5117C11.8106 13.3063 11.8353 13.1101 11.9705 12.927C12.0642 12.7974 12.0027 12.5513 11.8134 12.5478Z" fill="white"/>
<path d="M87.0768 32.1148C86.8231 31.3116 86.1674 30.3117 85.2322 30.2761C84.745 30.2572 84.1968 30.6255 84.3067 31.1877C84.4217 31.7614 84.8244 32.1888 85.0009 32.7419C85.1656 33.2512 85.2785 33.7757 85.338 34.3075C85.3955 34.9386 86.1933 35.0757 86.5729 34.6518C87.2379 33.9002 87.3765 33.0614 87.0768 32.1148Z" fill="white"/>
<path d="M86.4226 36.5716C86.3254 36.092 85.7968 35.8149 85.3717 36.1224C85.2378 36.2247 85.1235 36.3503 85.0341 36.493C84.9921 36.5624 84.9513 36.633 84.911 36.7036L84.8955 36.7311C84.8627 36.7833 84.8276 36.8338 84.7942 36.8854C84.6487 37.1149 84.5814 37.3444 84.3496 37.5492C84.1437 37.7322 84.054 38.0082 84.2001 38.2612C84.3306 38.4861 84.632 38.6284 84.8857 38.5085C85.2584 38.3335 85.6645 38.1413 85.9446 37.8349C86.2368 37.5154 86.5123 37.0162 86.4226 36.5716Z" fill="white"/>
<path d="M83.2062 64.452C82.0311 67.1735 80.0753 69.4875 77.5848 71.103C74.9223 72.8178 71.7564 73.5854 68.5992 73.3611C66.7186 73.2273 64.8814 72.7337 63.1878 71.9073C62.5896 71.6147 62.0782 72.4569 62.6603 72.8075C62.6158 72.7806 62.5793 72.7424 62.5545 72.6967C62.5646 72.711 62.5736 72.7259 62.5815 72.7415C62.5815 72.7415 62.5718 72.699 62.5994 72.7988C62.6321 72.9204 62.6567 73.0441 62.673 73.1689C62.7172 73.5714 62.7364 73.9763 62.7305 74.3811C62.7305 75.2474 62.6902 76.116 62.608 76.9789C62.4602 78.5279 61.5726 80.7929 59.5347 80.556C57.9817 80.3752 56.1026 80.1486 54.549 79.5921C53.8271 79.3328 53.5597 78.5445 53.4239 77.8102C53.2301 76.7626 53.2853 75.6817 53.237 74.6227C53.1846 73.4844 52.9114 72.3852 52.5795 71.2952C52.1934 70.0196 51.6877 68.7832 51.0691 67.6022C49.8865 65.3647 48.1563 63.1846 45.8826 61.9684C44.8588 61.4216 43.7348 61.1726 42.5764 61.1761C41.2667 61.1795 39.9645 61.3958 38.6513 61.4056C35.8198 61.4356 32.9975 61.0795 30.2627 60.3471C27.7572 59.6707 25.2482 58.6655 23.3478 56.8474C21.8287 55.3937 20.8555 53.5239 20.4028 51.4827C20.2939 50.9886 20.2127 50.4889 20.1595 49.9859C20.0887 49.3255 19.043 49.3187 19.1144 49.9859C19.349 52.1763 20.0071 54.326 21.3277 56.1171C22.8865 58.2312 25.1073 59.6299 27.5398 60.5611C30.3041 61.6195 33.2698 62.1726 36.2177 62.374C37.6444 62.4767 39.0767 62.4767 40.5034 62.374C41.7838 62.277 43.0492 62.0774 44.3083 62.4405C45.5409 62.7957 46.6091 63.6138 47.5173 64.4967C48.5158 65.472 49.3314 66.6074 50.0044 67.8242C51.2181 70.0198 52.1418 72.578 52.2108 75.1011C52.2592 76.8888 52.0762 79.7258 54.109 80.5342C54.9856 80.8824 55.9496 81.0373 56.8745 81.1985C57.7419 81.3515 58.6129 81.4821 59.4876 81.5904C61.7774 81.8772 63.2666 79.6931 63.5714 77.6593C63.6934 76.8429 63.7365 76.0099 63.7618 75.1855C63.7877 74.3479 63.8297 73.4443 63.6318 72.6216C63.5645 72.341 63.4443 72.0628 63.1866 71.9073L62.6592 72.8075C65.8448 74.3602 69.4555 74.8194 72.9298 74.1138C76.0933 73.4684 79.0032 71.7862 81.1924 69.4254C82.4087 68.1178 83.3942 66.614 84.1069 64.978C84.3709 64.3688 83.4742 63.8375 83.205 64.452H83.2062Z" fill="white"/>
<path d="M43.2763 61.8905C48.958 60.2221 54.8589 60.9152 60.6091 61.8136C63.2647 62.2295 65.9365 62.5789 68.5806 63.0654C71.0591 63.5209 73.5273 64.0407 76.0311 64.3425C78.7437 64.6701 81.5667 64.7493 84.2097 63.9529C84.8516 63.759 84.5784 62.7528 83.9319 62.9478C81.6104 63.6477 79.1504 63.6236 76.7587 63.381C74.2388 63.1257 71.7545 62.6019 69.2709 62.1372C66.6549 61.6478 64.0136 61.3018 61.3856 60.887C58.5303 60.4361 55.6636 60.003 52.7732 59.8601C49.482 59.6972 46.1689 59.9548 42.9985 60.8853C42.3548 61.0747 42.6286 62.0804 43.2763 61.8905Z" fill="white"/>
<path d="M49.5488 60.6775C49.7311 62.5363 51.0046 64.1289 52.8067 64.6722L52.4949 63.9063C51.1962 66.4306 52.4374 69.543 55.1673 70.4053C55.4821 70.4985 55.8054 70.5606 56.1324 70.5906C56.4172 70.6216 56.7347 70.6216 56.9722 70.8035C57.2408 71.0088 57.4186 71.3468 57.6694 71.5791C58.2518 72.1171 58.9641 72.4954 59.7368 72.677C60.5095 72.8586 61.3162 72.8373 62.0782 72.6152C62.7218 72.4271 62.448 71.4208 61.8004 71.6101C61.2972 71.757 60.7678 71.7921 60.2495 71.7128C59.7312 71.6335 59.2367 71.4418 58.8008 71.1511C58.3188 70.8321 58.0496 70.3342 57.6072 69.9831C57.1649 69.6319 56.6185 69.613 56.0732 69.543C53.6626 69.2332 52.2913 66.5804 53.3968 64.4336C53.5527 64.1306 53.4204 63.7692 53.0845 63.6682C51.7616 63.2666 50.7297 62.0618 50.5939 60.6786C50.5289 60.0171 49.4832 60.0103 49.5488 60.6786V60.6775Z" fill="white"/>
<path d="M20.3269 48.8769C20.1302 45.3607 20.7054 41.1611 24.1508 39.3212C24.8887 38.9271 25.6526 38.7762 26.4803 38.7246C26.9128 38.6976 27.3367 38.646 27.7313 38.4549C28.1409 38.2576 28.4727 37.9323 28.8138 37.6391C30.0332 36.5887 31.542 35.9237 33.1203 35.6312C34.7033 35.3408 36.3343 35.4561 37.8604 35.9662C38.6835 36.2427 39.3669 36.7327 40.1526 37.0769C41.0257 37.459 41.7861 37.1675 42.4648 36.5657C43.8844 35.3076 45.2833 34.1085 47.0088 33.2772C48.6349 32.4953 50.4422 32.1057 52.2431 32.291C53.2072 32.3852 54.1423 32.6731 54.9919 33.1372C55.8547 33.6163 56.6381 34.4241 57.647 33.7482C58.0537 33.4757 58.3982 33.0971 58.7709 32.781C59.1651 32.4414 59.583 32.1303 60.0214 31.8498C60.8899 31.3048 61.8752 30.9285 62.9065 31.1734C62.9841 31.1934 63.0651 31.1956 63.1436 31.1798C63.222 31.164 63.2959 31.1306 63.3596 31.0823C63.4233 31.0339 63.4751 30.9717 63.5112 30.9005C63.5473 30.8292 63.5667 30.7507 63.568 30.6709C63.6255 28.7122 65.1331 27.0123 67.0479 26.6486C67.7077 26.5229 67.4281 25.5184 66.7701 25.6434C64.3969 26.0944 62.5914 28.2773 62.5235 30.6709L63.1844 30.1689C61.246 29.7099 59.5124 30.7999 58.0882 31.9967C57.7643 32.2692 57.4664 32.6077 57.1196 32.8487C56.664 33.1648 56.2568 32.6926 55.8748 32.4471C55.1163 31.9702 54.2812 31.627 53.4061 31.4322C49.5943 30.5664 45.8901 32.2686 43.0107 34.6771C42.6529 34.9765 42.3072 35.2886 41.9667 35.6071C41.6745 35.8801 41.3283 36.2628 40.8894 36.2261C40.4505 36.1894 40.0329 35.8165 39.6591 35.6162C39.2827 35.4171 38.8943 35.2416 38.496 35.0907C36.9125 34.4837 35.1599 34.3116 33.4838 34.5279C31.8422 34.7396 30.2363 35.3156 28.8823 36.2726C28.1587 36.7832 27.5593 37.5921 26.6293 37.6736C25.7291 37.7533 24.9158 37.8371 24.0771 38.2037C22.3441 38.9621 20.9866 40.4755 20.2314 42.1863C19.3036 44.2867 19.1569 46.6125 19.2841 48.8769C19.3214 49.5436 20.3666 49.5482 20.3286 48.8769H20.3269Z" fill="white"/>
<path d="M24.9018 46.3119C28.4893 49.6228 34.2642 50.1466 38.3693 47.4783L37.9667 47.5311C41.1268 47.9946 44.5365 47.9103 47.5908 46.9C49.9105 46.1318 52.2711 44.6275 52.8434 42.0957L51.8886 42.2202C54.1957 45.3372 58.7075 45.2534 62.1788 44.7928C65.6708 44.3286 69.0074 43.0378 71.7016 40.7383C73.4502 39.2467 74.8485 37.3822 75.9276 35.3621C76.2433 34.7701 75.3414 34.2434 75.0251 34.836C73.311 38.0488 70.7756 40.6879 67.4527 42.2415C64.6124 43.569 61.3102 44.1009 58.1869 43.954C56.2313 43.8622 54.0185 43.3533 52.7911 41.6942C52.5455 41.3631 51.9438 41.3413 51.8363 41.8186C51.4497 43.5289 50.0802 44.6665 48.5577 45.3986C46.7044 46.289 44.5659 46.6194 42.5297 46.7239C41.3806 46.7827 40.2286 46.7522 39.0843 46.6326C38.784 46.6011 38.4769 46.5305 38.176 46.5179C37.9097 46.5064 37.7447 46.6481 37.5261 46.7795C37.1393 47.0144 36.7355 47.2203 36.3182 47.3957C34.6737 48.0778 32.8366 48.2895 31.0742 48.0612C29.061 47.8007 27.1341 46.9522 25.6432 45.5764C25.1503 45.1215 24.4094 45.8564 24.9041 46.3131L24.9018 46.3119Z" fill="white"/>
<path d="M28.9623 50.0633C27.7004 51.0759 27.3972 53.0517 28.2474 54.4132C28.3192 54.5304 28.4338 54.6154 28.5671 54.6503C28.7004 54.6852 28.842 54.6672 28.9623 54.6002C29.201 54.4608 29.2994 54.1269 29.1498 53.8871C29.1055 53.8159 29.063 53.7436 29.0256 53.669C29.0106 53.6392 28.9963 53.6117 28.9819 53.5784C29.0193 53.6576 28.9738 53.5578 28.9675 53.5417C28.9116 53.3927 28.8689 53.2391 28.8398 53.0827C28.8398 53.0827 28.8179 52.9433 28.826 53.0035C28.8341 53.0638 28.8197 52.9359 28.8185 52.9238C28.8116 52.84 28.8087 52.7563 28.8087 52.6731C28.8087 52.5899 28.8122 52.5222 28.8179 52.4471C28.8214 52.4052 28.8254 52.3633 28.8306 52.322C28.8208 52.3983 28.8306 52.322 28.8381 52.2864C28.8657 52.1295 28.9059 51.9751 28.9583 51.8246C28.9692 51.793 28.9813 51.762 28.9928 51.7305C29.0469 51.5825 28.9704 51.7752 29.0083 51.6932C29.0463 51.6112 29.0802 51.5429 29.1234 51.47C29.1665 51.3972 29.1999 51.3409 29.2419 51.2784C29.2419 51.2818 29.3195 51.1688 29.2885 51.2096C29.2574 51.2503 29.3339 51.1522 29.3414 51.1453C29.4509 51.0197 29.5718 50.9045 29.7026 50.8011C29.9229 50.6244 29.8872 50.248 29.7026 50.0639C29.4852 49.847 29.1849 49.8872 28.964 50.0639L28.9623 50.0633Z" fill="white"/>
<path d="M39.2534 55.9304C39.8625 56.1289 40.4204 55.8702 41.0014 55.705C41.7169 55.5024 42.3876 55.8197 43.0393 56.1025C44.3783 56.6837 45.6852 57.0124 47.1519 56.8019C48.5795 56.5965 49.7449 55.9149 50.8331 55.0004C51.3594 54.557 51.892 54.075 52.5403 53.8163C53.1051 53.5908 53.7165 53.5604 54.3159 53.6212C55.5813 53.7503 56.7794 54.2609 58.023 54.5053C59.3868 54.7727 60.6016 54.6499 61.8405 54.0039C62.5267 53.6459 63.1796 53.269 63.9607 53.16C64.7274 53.0533 65.5137 53.16 66.2615 53.3321C67.6022 53.6413 68.8763 54.2604 70.2406 54.4548C71.5791 54.6459 72.9498 54.5558 74.2733 54.3005C75.5588 54.0527 76.8732 53.6235 77.9459 52.8559C78.4871 52.4681 77.966 51.5639 77.4184 51.9558C75.5916 53.2632 73.0038 53.67 70.8037 53.479C69.5153 53.3642 68.3137 52.8008 67.0759 52.4629C65.638 52.0711 64.0769 51.8691 62.6562 52.4371C61.9757 52.7096 61.3683 53.141 60.6827 53.3981C60.1075 53.6126 59.5099 53.6517 58.9048 53.5931C57.6572 53.4721 56.4746 52.9758 55.2529 52.724C54.0208 52.4698 52.7635 52.4692 51.6395 53.0997C50.4391 53.7733 49.5849 54.9109 48.2839 55.4313C46.797 56.0257 45.229 55.9167 43.7755 55.2925C43.0617 54.9861 42.2932 54.5782 41.4966 54.577C41.1515 54.577 40.8104 54.6706 40.4843 54.7761C40.1777 54.8754 39.8556 55.0303 39.5341 54.9259C38.8933 54.717 38.6189 55.7233 39.2562 55.9304H39.2534Z" fill="white"/>
<path d="M16.4632 28.2454C19.2114 28.7525 21.3028 26.6074 22.784 24.5995C23.5472 23.5616 24.2795 22.4767 25.2717 21.6403C26.2857 20.7872 27.5753 20.3655 28.8821 20.2444C30.4254 20.101 31.979 20.2857 33.5084 20.4854C33.7902 20.5221 34.0261 20.2198 34.0307 19.9645C34.0341 19.6529 33.7868 19.4797 33.5084 19.4435C30.9327 19.1073 28.1125 18.8124 25.7289 20.0803C23.396 21.323 22.3842 23.8427 20.5821 25.6333C19.5847 26.6241 18.2129 27.5139 16.7421 27.2397C16.0847 27.118 15.8029 28.1226 16.4643 28.2442L16.4632 28.2454Z" fill="white"/>
<path d="M34.9609 9.25169C36.2648 8.66192 37.8403 9.32169 38.3131 10.6699C38.8262 12.1317 37.7891 13.5092 37.0114 14.6652C35.5021 16.9119 33.7231 19.287 34.0319 22.1515C34.1792 23.5307 34.7659 24.7717 35.9048 25.5984C36.4501 25.9931 36.9717 25.0895 36.4322 24.6988C35.4239 23.9679 35.0368 22.6908 35.0408 21.4964C35.0466 20.0575 35.6264 18.7506 36.358 17.5378C37.7454 15.2349 40.8784 12.1988 38.806 9.40602C37.7862 8.02912 35.9646 7.65965 34.4346 8.35269C33.8226 8.62922 34.3535 9.52765 34.9615 9.25284L34.9609 9.25169Z" fill="white"/>
<path d="M46.3777 5.77179C47.8921 6.81996 48.8245 8.61338 48.8458 10.4464C48.8539 11.1165 49.8984 11.1182 49.8909 10.4464C49.8651 8.22727 48.7279 6.13323 46.9045 4.87165C46.6745 4.71158 46.3248 4.82919 46.1902 5.05867C46.0383 5.31799 46.1453 5.61058 46.3777 5.77179Z" fill="white"/>
<path d="M52.8936 8.8481C50.4968 8.57616 48.4911 10.8561 47.7899 12.9214C47.6099 13.4504 47.4994 14.0327 47.5547 14.5927C47.5823 14.8726 47.775 15.1136 48.0769 15.1136C48.3381 15.1136 48.6274 14.8743 48.5992 14.5927C48.5861 14.4592 48.5823 14.325 48.5877 14.1911C48.5877 14.1205 48.5963 14.0499 48.6038 13.9799C48.6165 13.8652 48.5969 14.008 48.6159 13.9013C48.6663 13.6122 48.7433 13.3284 48.846 13.0534C49.0666 12.4779 49.3772 11.941 49.7663 11.4625C50.5566 10.4969 51.6425 9.74997 52.8884 9.8911C53.1691 9.92323 53.4113 9.62892 53.4113 9.37018C53.4113 9.06209 53.1703 8.8808 52.8884 8.84925L52.8936 8.8481Z" fill="white"/>
<path d="M47.7913 13.108C45.9506 13.781 44.6058 15.2732 43.88 17.0666C43.0091 19.2181 43.1805 21.6431 43.7074 23.8548C43.8633 24.5071 44.871 24.2305 44.7151 23.5777C44.2475 21.6156 44.0899 19.5124 44.7945 17.5847C45.3524 16.0581 46.5149 14.6812 48.0691 14.1132C48.6954 13.8837 48.4245 12.8768 47.7913 13.1086V13.108Z" fill="white"/>
<path d="M14.0718 17.6833C14.3353 16.2135 14.8921 14.7975 15.8687 13.6495C16.7419 12.6238 17.8577 11.8521 19.0898 11.3094C20.4352 10.715 21.9658 10.3375 23.4405 10.3582C24.4051 10.3736 25.36 10.5529 26.2642 10.8883C26.6812 11.0415 27.0827 11.2899 27.5411 11.2623C27.9713 11.2337 28.2578 10.9508 28.493 10.6186C29.514 9.17806 31.3362 9.15855 32.9542 9.20043C33.6272 9.21764 33.6266 8.17521 32.9542 8.158C31.4305 8.11899 29.7015 8.158 28.4424 9.13331C28.1514 9.36284 27.898 9.63613 27.6912 9.94339C27.5629 10.1293 27.5399 10.2188 27.3242 10.1981C27.0642 10.1734 26.7145 9.94396 26.4689 9.85389C25.544 9.52737 24.5737 9.34678 23.593 9.31862C20.644 9.22453 17.3608 10.4867 15.3511 12.6633C14.1294 13.9863 13.3805 15.6438 13.0641 17.4062C12.9491 18.0619 13.9533 18.3431 14.0718 17.6833Z" fill="white"/>
<path d="M53.5633 9.1747C53.8446 7.5448 54.9501 6.31763 56.4237 5.61771C57.5845 5.06809 59.1731 4.77493 60.3845 5.30389C60.9942 5.57009 61.5268 4.67281 60.9114 4.40374C59.3359 3.71529 57.4993 3.98321 55.9739 4.68141C54.2483 5.47199 52.8828 6.99977 52.5556 8.89531C52.4405 9.55106 53.4488 9.83332 53.5633 9.17241V9.1747Z" fill="white"/>
<path d="M45.1506 25.323C46.3999 25.3437 47.6354 25.9839 48.3274 27.0327C48.6936 27.5976 48.9078 28.2471 48.9492 28.9185C48.9906 29.59 48.8579 30.2608 48.5638 30.8662C48.267 31.4657 49.1677 31.9941 49.4657 31.3923C50.2267 29.8582 50.1841 27.9541 49.2293 26.5072C48.7802 25.8351 48.1747 25.2815 47.4644 24.8937C46.7541 24.506 45.9602 24.2956 45.1506 24.2806C44.4776 24.2697 44.4776 25.3133 45.1506 25.323Z" fill="white"/>
<path d="M36.7985 26.6974C38.4378 27.4851 38.799 29.558 37.51 30.8488C36.9457 31.4139 36.2785 31.9314 36.1238 32.7633C35.976 33.559 36.2544 34.4024 36.8802 34.9256C37.3927 35.3541 38.1352 34.6204 37.6193 34.1889C36.9676 33.6439 37.0125 32.8344 37.5693 32.2418C38.1968 31.574 38.8404 31.0571 39.1591 30.1632C39.7619 28.4754 38.929 26.5684 37.3259 25.7979C36.7226 25.511 36.1922 26.4066 36.7985 26.6974Z" fill="white"/>
<path d="M24.5385 28.9025C25.1971 29.2227 25.8862 29.5635 26.3837 30.1154C26.9508 30.7464 26.8013 31.5238 26.9088 32.3C27.0221 33.0733 27.3151 33.8095 27.7646 34.4496C28.214 35.0898 28.8074 35.6161 29.4972 35.9867C30.0908 36.3011 30.6194 35.4021 30.0247 35.0865C29.3541 34.7348 28.7974 34.2005 28.4193 33.5456C28.0167 32.8439 27.9229 32.1331 27.8896 31.3385C27.855 30.5198 27.5732 29.8142 26.9825 29.2364C26.4355 28.7006 25.7452 28.3346 25.0625 28.0024C24.4608 27.7098 23.9305 28.6082 24.5356 28.9025H24.5385Z" fill="white"/>
<path d="M14.0827 27.6402C11.3217 27.195 8.35663 27.3958 6.13295 29.2592C4.2676 30.8231 3.47844 33.4472 4.59661 35.6847C5.1718 36.8321 6.20715 37.493 7.37018 37.9532C8.4757 38.3903 9.85616 38.7133 10.5245 39.7982C10.895 40.3989 10.7385 41.0156 10.6396 41.6708C10.5418 42.2912 10.5613 42.9244 10.6971 43.5376C10.9749 44.7751 11.7221 45.9013 12.6481 46.7539C13.5086 47.5418 14.504 48.1693 15.5868 48.6064C16.709 49.0504 17.9537 49.082 19.1449 49.0848C19.8173 49.0848 19.8185 48.0447 19.1449 48.043C18.1723 48.043 17.1766 48.0281 16.2408 47.7349C15.4401 47.4836 14.7021 47.0057 14.0188 46.5301C13.0945 45.8841 12.2932 44.9524 11.8906 43.891C11.6937 43.3819 11.6006 42.8387 11.6168 42.2933C11.6404 41.6542 11.8659 41.0357 11.7997 40.392C11.6847 39.2836 10.8673 38.4414 9.93956 37.9015C8.89156 37.2945 7.65375 37.0983 6.63164 36.4437C4.73351 35.2275 4.75134 32.523 6.02021 30.8696C7.83034 28.511 11.0692 28.2081 13.8014 28.6482C14.4594 28.7543 14.7424 27.7503 14.0792 27.6436L14.0827 27.6402Z" fill="white"/>
<path d="M8.93333 27.9309C8.45247 25.6361 8.07514 22.9528 9.44467 20.8743C10.5807 19.1531 12.8435 18.2794 14.8469 18.7401C15.5014 18.891 15.7804 17.8864 15.1247 17.7355C12.7192 17.1819 10.1361 18.1583 8.68255 20.1451C6.98976 22.4646 7.37514 25.5804 7.92617 28.2074C8.06364 28.8637 9.0708 28.5861 8.93333 27.9309Z" fill="white"/>
<path d="M68.6952 9.49837C69.5039 12.6572 68.036 16.0415 65.5316 18.0248C64.2208 19.0615 62.6068 19.4735 61.174 20.2904C59.6595 21.1538 58.5816 22.6426 58.7685 24.4469C58.9762 26.4521 60.6615 27.9575 62.6695 28.0234C63.3424 28.0458 63.3413 27.004 62.6695 26.9816C62.2675 26.9696 61.8721 26.8762 61.5075 26.7069C61.1428 26.5376 60.8166 26.2961 60.5485 25.997C60.2805 25.698 60.0763 25.3476 59.9484 24.9673C59.8204 24.587 59.7715 24.1847 59.8044 23.7849C59.9517 22.0391 61.53 21.2032 62.968 20.5761C64.418 19.945 65.7669 19.3013 66.9207 18.1924C68.0529 17.0984 68.9171 15.7589 69.4464 14.2779C70.034 12.6554 70.1245 10.8952 69.7064 9.22127C69.5401 8.57183 68.5324 8.84721 68.6992 9.49837H68.6952Z" fill="white"/>
<path d="M68.8989 15.8347C72.3189 14.2759 76.523 15.5581 78.447 18.7761C79.3553 20.2947 79.6848 22.0187 79.476 23.7673C79.2575 25.5969 78.6708 27.3897 77.9898 29.0954C77.3082 30.7994 76.5021 32.4511 75.578 34.0373C75.2409 34.6185 76.1434 35.144 76.4805 34.5634C78.3665 31.3133 80.0317 27.6519 80.5068 23.8981C81.002 19.9711 78.8123 16.0664 75.0494 14.6672C72.889 13.864 70.4622 13.9827 68.3737 14.9345C67.7629 15.2128 68.2932 16.1118 68.9006 15.8347H68.8989Z" fill="white"/>
<path d="M78.5266 52.4696C81.93 50.2993 83.6855 46.0349 82.7985 42.105L82.2947 42.7647C84.2279 42.732 86.1162 41.9483 87.476 40.5697C88.8869 39.14 89.5979 37.1636 89.7428 35.1889C90.0097 31.5395 88.1271 27.5184 84.4085 26.4352C82.4782 25.873 80.3707 26.1828 78.786 27.4415C78.2603 27.8592 79.004 28.5924 79.5251 28.1787C80.702 27.2436 82.3206 27.0164 83.762 27.3446C85.2983 27.6945 86.5839 28.648 87.4357 29.9636C89.1958 32.6835 89.2292 36.7184 87.1959 39.315C86.0259 40.8067 84.1876 41.6907 82.2947 41.7246C82.2147 41.7261 82.1361 41.7456 82.0648 41.7817C81.9935 41.8178 81.9312 41.8695 81.8828 41.9329C81.8343 41.9964 81.8009 42.07 81.7849 42.1481C81.769 42.2263 81.771 42.3071 81.7908 42.3844C82.5725 45.8461 80.9959 49.6613 77.9997 51.5717C77.4349 51.932 77.9583 52.8339 78.5266 52.4719V52.4696Z" fill="white"/>
<path d="M82.7199 43.2327C84.5906 43.7081 86.1954 44.905 87.1816 46.5602C88.278 48.3961 88.5161 50.6387 88.0024 52.6989C87.8402 53.35 88.8474 53.6277 89.0096 52.976C89.59 50.6513 89.3219 48.1115 88.0835 46.0341C86.9671 44.1627 85.119 42.7548 82.9977 42.2258C82.3454 42.0635 82.0671 43.068 82.7199 43.231V43.2327Z" fill="white"/>
<path d="M88.4583 48.9821C89.8693 49.6165 91.4369 49.8205 92.9638 49.5684C93.2422 49.5231 93.3975 49.1777 93.3285 48.927C93.2474 48.6316 92.9655 48.518 92.686 48.5633C91.4319 48.7625 90.1467 48.5953 88.9858 48.0819C88.7281 47.9672 88.4238 48.0079 88.2708 48.269C88.1403 48.4916 88.1995 48.8662 88.4583 48.9821Z" fill="white"/>
<path d="M76.2323 64.0284C79.6892 64.1133 82.1033 60.8655 81.9572 57.5931L81.2957 58.0951C85.2984 59.4863 89.9782 58.3888 92.9594 55.3912C93.4334 54.9145 92.6954 54.1772 92.2209 54.6546C89.4847 57.4049 85.2363 58.3636 81.5735 57.0905C81.26 56.9815 80.8977 57.2695 80.912 57.5931C81.0334 60.3067 79.1364 63.0577 76.2323 62.986C75.5593 62.9693 75.5599 64.0118 76.2323 64.0284Z" fill="white"/>
<path d="M35.137 52.9112C36.208 54.4448 37.8347 55.5555 39.6753 55.941C39.9508 55.9984 40.2395 55.8601 40.3178 55.5773C40.3891 55.3185 40.2303 54.9944 39.9525 54.9364C38.3845 54.6077 36.9581 53.7012 36.0412 52.3851C35.8802 52.1557 35.5811 52.0484 35.3268 52.1981C35.0967 52.3318 34.9771 52.6789 35.1393 52.9112H35.137Z" fill="white"/>
<path d="M37.3576 54.6276C35.9024 55.7945 35.2869 57.865 35.8189 59.6418C36.0116 60.2826 37.0199 60.0095 36.8267 59.3647C36.3941 57.9253 36.9003 56.324 38.0967 55.3648C38.3164 55.1881 38.2808 54.8117 38.0967 54.6276C37.8793 54.4107 37.579 54.4509 37.3576 54.6276Z" fill="white"/>
<path d="M28.6313 48.4194C28.3735 49.0957 28.2723 49.8213 28.3355 50.5421C28.3395 50.6794 28.394 50.8105 28.4886 50.9104C28.5873 51.0071 28.7198 51.0618 28.8581 51.063C29.1206 51.0516 29.4073 50.8335 29.3814 50.5421C29.3656 50.3705 29.3596 50.1981 29.3635 50.0258C29.3635 49.9523 29.3693 49.8789 29.375 49.8055C29.3785 49.7567 29.3831 49.7079 29.3883 49.6592C29.3923 49.6219 29.4222 49.5157 29.3883 49.6517C29.4268 49.498 29.4424 49.3379 29.4821 49.183C29.525 49.017 29.5775 48.8536 29.6392 48.6936C29.7371 48.4383 29.531 48.1107 29.2743 48.0528C28.9756 47.9845 28.7361 48.1434 28.6313 48.4165V48.4194Z" fill="white"/>
<path d="M4.21943 37.0572C1.1738 39.8471 2.83264 44.5424 5.02182 47.2967C7.11034 49.9243 10.3504 51.8864 13.7762 51.9013C15.9516 51.9111 17.9561 51.0729 19.6535 49.7534C20.1833 49.3414 19.439 48.6059 18.9144 49.0167C17.5805 50.0534 15.9746 50.751 14.2749 50.8463C12.7599 50.9312 11.2465 50.5784 9.88794 49.9134C7.19432 48.5939 4.95395 46.1843 3.99971 43.329C3.37217 41.4518 3.40611 39.2189 4.95913 37.795C5.45494 37.3406 4.71467 36.6051 4.22001 37.0583L4.21943 37.0572Z" fill="white"/>
<path d="M4.17196 37.455C2.1306 35.3466 0.97562 32.4551 1.04234 29.52C1.10676 26.6693 2.3509 23.8701 4.40261 21.8897C4.90935 21.4009 5.48051 20.9626 5.85554 20.3556C6.2668 19.6901 6.30821 18.9052 6.46927 18.1594C6.76484 16.7969 7.29621 15.4961 8.03954 14.3156C9.58045 11.8646 11.9705 10.0638 14.7555 9.25545C16.2026 8.83573 17.7157 8.6896 19.2166 8.8246C19.9886 8.89517 20.7697 9.09482 21.5174 8.77583C22.1605 8.50045 22.5873 7.94166 23.0641 7.4563C24.8961 5.58831 27.4706 4.48908 30.0774 4.3445C31.3969 4.26525 32.7195 4.43857 33.9737 4.8551C34.7129 5.10352 35.4054 5.37144 36.1687 5.04902C36.7893 4.78741 37.2477 4.27164 37.755 3.8471C39.6589 2.25161 42.1156 1.32278 44.5808 1.1019C47.0852 0.872415 49.6655 1.31417 51.8984 2.48798C52.4573 2.7804 52.9917 3.1173 53.4963 3.49541C54.014 3.88554 54.4816 4.41335 55.1178 4.61185C55.7764 4.81896 56.4102 4.52752 57.0544 4.41335C57.5975 4.31404 58.1506 4.28033 58.7018 4.31295C59.0992 4.33819 59.6882 4.40187 59.9413 4.75815C60.3267 5.30088 61.2326 4.7811 60.8432 4.23206C60.1599 3.2688 58.8266 3.19938 57.7458 3.28314C57.0981 3.33478 56.5028 3.50631 55.8695 3.62278C55.173 3.75014 54.626 3.05308 54.1215 2.66927C52.0169 1.06862 49.4147 0.202323 46.7861 0.0302102C44.1759 -0.139034 41.503 0.403695 39.1936 1.6366C38.6194 1.94233 38.0706 2.29341 37.5526 2.68648C37.0188 3.08808 36.5523 3.62622 35.984 3.9779C35.2846 4.40991 34.5288 3.92053 33.8242 3.71744C33.1634 3.53103 32.4871 3.40469 31.8035 3.33994C29.0274 3.07825 26.2472 3.79547 23.9464 5.36685C23.3646 5.76597 22.822 6.21932 22.3261 6.72081C21.8159 7.24059 21.3851 7.90093 20.5868 7.92043C19.7884 7.93994 18.9992 7.74144 18.2032 7.7357C17.4297 7.73311 16.6576 7.79799 15.8955 7.92961C12.9154 8.43104 10.1361 10.0024 8.20635 12.3219C7.27073 13.4454 6.52578 14.714 6.00106 16.0774C5.74247 16.7471 5.54383 17.4382 5.40747 18.1428C5.25101 18.958 5.16934 19.6798 4.56826 20.3011C4.05404 20.8323 3.48115 21.2953 2.99454 21.8547C2.50835 22.4122 2.07348 23.0122 1.69518 23.6475C0.532563 25.5931 -0.0538326 27.8272 0.0038851 30.0914C0.0616028 32.3556 0.761074 34.5572 2.02132 36.4412C2.43812 37.0649 2.91055 37.6498 3.43284 38.1888C3.90104 38.6718 4.64074 37.9346 4.17196 37.4515V37.455Z" fill="white"/>
<path d="M17.5508 18.8257C19.746 18.9257 21.8536 19.7139 23.5736 21.0781C23.7933 21.2542 24.0976 21.2927 24.3121 21.0781C24.495 20.8962 24.5336 20.5182 24.3121 20.3415C22.3882 18.7938 20.0198 17.8979 17.5508 17.7839C16.8784 17.7534 16.8801 18.7953 17.5508 18.8257Z" fill="white"/>
<path d="M19.8567 15.5691C19.646 16.6489 19.7871 17.7676 20.2593 18.7618C20.3744 19.0096 20.7517 19.0917 20.9743 18.9488C21.2297 18.7847 21.2861 18.5008 21.1618 18.2363C21.1538 18.2196 21.0767 18.0412 21.1147 18.1347C21.0957 18.0894 21.0778 18.0429 21.0606 17.997C21.0222 17.8892 20.9866 17.7798 20.9536 17.6689C20.9225 17.5581 20.8961 17.4463 20.8725 17.3333C20.8621 17.2851 20.8535 17.2363 20.8455 17.1875C20.8397 17.1554 20.8345 17.1227 20.8299 17.0906C20.8363 17.1393 20.8368 17.1445 20.8299 17.1066C20.8062 16.886 20.7962 16.6641 20.8 16.4423C20.8035 16.3275 20.8127 16.2128 20.823 16.0981C20.838 15.938 20.8046 16.2002 20.8299 16.0407C20.8403 15.9759 20.8518 15.911 20.8639 15.8462C20.9156 15.5794 20.7891 15.2725 20.4992 15.2054C20.2409 15.148 19.9119 15.2828 19.8567 15.5691Z" fill="white"/>
<path d="M86.9873 41.0177C88.4615 40.8628 89.9536 41.3292 91.0413 42.3429C91.5319 42.8019 92.2727 42.0652 91.7798 41.6063C90.5046 40.4176 88.7313 39.7928 86.9873 39.9758C86.7072 40.0051 86.465 40.1944 86.465 40.4967C86.465 40.7555 86.7055 41.0475 86.9873 41.0177Z" fill="white"/>
<path d="M90.839 41.6085C91.5466 40.7858 92.3298 40.031 93.1783 39.3539C93.3929 39.1817 93.3705 38.7928 93.1783 38.6166C92.9483 38.4084 92.6682 38.4342 92.4398 38.6166C91.5913 39.2943 90.8079 40.0493 90.0999 40.8719C89.9222 41.0784 89.8813 41.4083 90.0999 41.6085C90.2955 41.7875 90.6487 41.8294 90.839 41.6085Z" fill="white"/>
<path d="M38.5694 3.45215C40.896 2.64896 43.3861 3.34831 45.3969 4.63112C45.9652 4.99371 46.4898 4.09184 45.9244 3.73155C43.6955 2.30932 40.8627 1.55776 38.2916 2.44701C37.6589 2.66559 37.9315 3.67245 38.5694 3.45215Z" fill="white"/>
<path d="M62.439 23.9732C62.2538 25.5193 62.5333 27.0804 63.1868 28.4894C63.3058 28.7442 63.6745 28.8084 63.9017 28.6759C64.164 28.5227 64.2083 28.2169 64.0892 27.9633C63.5106 26.719 63.3196 25.3306 63.4824 23.9732C63.5158 23.6932 63.2178 23.4523 62.9596 23.4523C62.6495 23.4523 62.4707 23.6927 62.4373 23.9732H62.439Z" fill="white"/>
<path d="M60.7824 5.18132C63.8384 3.28177 68.157 5.69307 68.6545 9.10262C68.7511 9.76411 69.7583 9.48299 69.6622 8.82552C69.0675 4.74931 63.835 2.05575 60.255 4.28174C59.6855 4.63572 60.2095 5.53759 60.7824 5.18132Z" fill="white"/>
<path d="M69.2939 9.62462C71.6247 8.97551 74.1153 9.22985 76.2658 10.3366C78.3883 11.437 79.9954 13.3509 80.7604 15.6084C81.1899 16.8734 81.3494 18.214 81.2286 19.5441C81.1952 19.9175 81.5875 20.0914 81.89 20.0466C84.5537 19.6508 87.2859 21.1556 88.694 23.3804C90.3126 25.938 90.2642 29.2047 89.1616 31.9459C89.0828 32.1427 89.2116 32.4433 89.402 32.5346C91.7534 33.6613 93.0459 36.4702 92.3205 38.9802C92.2343 39.2779 92.4827 39.6755 92.8244 39.6394C94.9722 39.4133 95.1649 42.5079 95.2546 43.9623C95.3581 45.6501 95.0493 47.9025 93.2 48.5686C92.7657 48.7246 92.6944 49.257 93.0752 49.5209C94.0329 50.1773 94.5707 51.4262 94.3257 52.5702C94.0829 53.6975 93.1805 54.5816 92.0703 54.861C91.7712 54.9367 91.5527 55.3556 91.7586 55.6263C93.1874 57.5385 91.1926 59.6957 89.7845 60.9045C88.1602 62.2957 85.9819 63.454 83.7887 62.9125C83.1359 62.7518 82.8575 63.7564 83.5109 63.9176C86.1424 64.5653 88.6963 63.2383 90.6329 61.5459C91.5797 60.718 92.4879 59.7628 92.9682 58.5838C93.4243 57.4645 93.4036 56.0962 92.6605 55.1025L92.3482 55.8656C93.8322 55.4915 95.0803 54.2454 95.357 52.7262C95.6475 51.1336 94.9279 49.5295 93.6026 48.6202L93.4778 49.5726C95.8683 48.712 96.4544 46.0632 96.2882 43.7965C96.1991 42.5877 96.1013 41.2561 95.5065 40.1735C94.9831 39.2206 93.9483 38.4788 92.8244 38.5969L93.3283 39.2561C94.1738 36.3302 92.691 32.9574 89.9289 31.6338C90.0094 31.83 90.0896 32.0262 90.1693 32.2225C91.1391 29.8129 91.3232 27.0017 90.4155 24.5422C90.0016 23.4049 89.3524 22.3672 88.51 21.4965C87.6677 20.6258 86.6511 19.9416 85.5264 19.4884C84.2861 18.9934 82.9355 18.8389 81.6151 19.0409L82.276 19.5435C82.5095 16.9423 81.7071 14.2894 80.1133 12.2229C78.4953 10.1249 76.0818 8.73938 73.4589 8.35213C71.9767 8.1268 70.4634 8.21772 69.019 8.61891C68.3725 8.80077 68.6474 9.80648 69.2968 9.62404L69.2939 9.62462Z" fill="white"/>
</svg>
