<svg width="211" height="87" viewBox="0 0 211 87" fill="none" xmlns="http://www.w3.org/2000/svg">
<path d="M168.092 12.5299H175.644V63.0648H168.092V12.5299Z" fill="#838383"/>
<path d="M71.8965 29.7327C62.3819 29.7327 54.632 36.9643 54.632 46.9232C54.632 56.8203 62.3819 64.1136 71.8965 64.1136C81.4111 64.1136 89.161 56.8203 89.161 46.9232C89.161 36.9519 81.4111 29.7327 71.8965 29.7327ZM71.8965 57.3386C66.6888 57.3386 62.1968 53.0441 62.1968 46.9232C62.1968 40.7405 66.6888 36.5077 71.8965 36.5077C77.1042 36.5077 81.5962 40.7405 81.5962 46.9232C81.5962 53.0441 77.1042 57.3386 71.8965 57.3386Z" fill="#838383"/>
<path d="M27.0877 35.0023V42.2956H44.5373C44.019 46.3927 42.6492 49.3915 40.5636 51.477C38.0215 54.0192 34.0478 56.8205 27.0877 56.8205C16.339 56.8205 7.94736 48.1574 7.94736 37.4087C7.94736 26.66 16.339 18.0093 27.0877 18.0093C32.8878 18.0093 37.1206 20.2923 40.2428 23.217L45.3888 18.071C41.0202 13.8998 35.2325 10.7159 27.0877 10.7159C12.3653 10.7159 0 22.6987 0 37.4211C0 52.1434 12.3776 64.1262 27.0877 64.1262C35.035 64.1262 41.0202 61.5223 45.7097 56.6354C50.5349 51.8102 52.0281 45.0476 52.0281 39.5683C52.0281 37.8777 51.8923 36.3104 51.6332 35.0146H27.0877V35.0023Z" fill="#838383"/>
<path d="M196.352 57.3388C192.514 57.3388 189.774 55.5864 188.009 52.131L211 42.6164L210.223 40.6666C208.791 36.8287 204.422 29.7205 195.5 29.7205C186.64 29.7205 179.285 36.6929 179.285 46.9109C179.285 56.549 186.578 64.1014 196.352 64.1014C204.237 64.1014 208.791 59.2763 210.679 56.4873L204.817 52.5753C202.868 55.4507 200.202 57.3388 196.352 57.3388ZM195.772 36.3721C198.77 36.3721 201.313 37.8653 202.152 40.0249L186.788 46.405C186.59 39.7534 191.921 36.3721 195.772 36.3721Z" fill="#838383"/>
<path d="M155.714 33.5706H155.455C153.764 31.5467 150.506 29.7327 146.397 29.7327C137.795 29.7327 129.922 37.2851 129.922 46.9972C129.922 56.6352 137.808 64.126 146.397 64.126C150.494 64.126 153.752 62.2996 155.455 60.214H155.714V62.6945C155.714 69.272 152.197 72.7891 146.533 72.7891C141.905 72.7891 139.042 69.4695 137.869 66.6682L131.292 69.4078C133.18 73.9615 138.19 79.5641 146.533 79.5641C155.393 79.5641 162.884 74.3564 162.884 61.6579V30.7693H155.714V33.5706ZM147.051 57.3386C141.843 57.3386 137.475 52.9701 137.475 46.9849C137.475 40.9256 141.843 36.4953 147.051 36.4953C152.197 36.4953 156.232 40.9256 156.232 46.9849C156.232 52.9824 152.197 57.3386 147.051 57.3386Z" fill="#838383"/>
<path d="M109.535 29.7327C100.021 29.7327 92.2709 36.9643 92.2709 46.9232C92.2709 56.8203 100.021 64.1136 109.535 64.1136C119.05 64.1136 126.8 56.8203 126.8 46.9232C126.8 36.9519 119.05 29.7327 109.535 29.7327ZM109.535 57.3386C104.328 57.3386 99.8357 53.0441 99.8357 46.9232C99.8357 40.7405 104.328 36.5077 109.535 36.5077C114.743 36.5077 119.235 40.7405 119.235 46.9232C119.247 53.0441 114.755 57.3386 109.535 57.3386Z" fill="#838383"/>
</svg>
