<svg width="54" height="60" viewBox="0 0 54 60" fill="none" xmlns="http://www.w3.org/2000/svg">
<path d="M14.6866 36.5154C14.7459 36.6139 14.7669 36.7308 14.7456 36.8439C14.7244 36.9569 14.6623 37.0582 14.5713 37.1284L6.82206 42.5044C6.72849 42.5657 6.61609 42.5915 6.50518 42.5771C6.38543 42.5567 6.27828 42.4905 6.20635 42.3926C6.14704 42.294 6.12602 42.1771 6.14729 42.064C6.16856 41.951 6.23062 41.8497 6.32168 41.7795L14.0709 36.4035C14.1692 36.3429 14.2865 36.3208 14.4001 36.3414C14.5138 36.3621 14.6158 36.424 14.6866 36.5154Z" fill="white"/>
<path d="M11.5878 25.5096C11.5836 25.5672 11.568 25.6235 11.5419 25.675C11.5159 25.7266 11.4798 25.7725 11.4358 25.81C11.3918 25.8475 11.3409 25.8758 11.2858 25.8934C11.2308 25.911 11.1728 25.9175 11.1153 25.9124L0.584667 25.0221C0.552487 25.0195 0.520767 25.0129 0.49027 25.0023C0.396713 24.9684 0.316368 24.9056 0.260875 24.823C0.205381 24.7404 0.177627 24.6422 0.18163 24.5427C0.18585 24.484 0.201761 24.4268 0.228436 24.3744C0.255111 24.322 0.292003 24.2754 0.336939 24.2375C0.381874 24.1996 0.433951 24.171 0.490082 24.1536C0.546213 24.1361 0.605265 24.1301 0.663765 24.1358L11.1883 25.0332C11.3043 25.0436 11.4114 25.0996 11.4863 25.1888C11.5612 25.2781 11.5977 25.3934 11.5878 25.5096Z" fill="white"/>
<path d="M15.9874 13.4422C15.8794 13.4273 15.7809 13.3728 15.7108 13.2894L11.1098 7.7654C11.0347 7.67562 10.9983 7.55965 11.0086 7.443C11.0189 7.32635 11.075 7.21857 11.1648 7.14337C11.2545 7.06817 11.3703 7.03172 11.4869 7.04202C11.6035 7.05233 11.7112 7.10855 11.7863 7.19832L16.4035 12.7178C16.4415 12.7619 16.4702 12.8132 16.488 12.8686C16.5058 12.924 16.5123 12.9824 16.5072 13.0404C16.5021 13.0984 16.4854 13.1547 16.4582 13.2062C16.4309 13.2576 16.3937 13.303 16.3486 13.3398C16.3 13.383 16.2423 13.4147 16.1797 13.4325C16.1172 13.4502 16.0514 13.4535 15.9874 13.4422Z" fill="white"/>
<path d="M30.1398 10.1184C30.0825 10.11 30.0274 10.0903 29.9776 10.0606C29.9279 10.0308 29.8845 9.99143 29.85 9.94482C29.8155 9.89821 29.7905 9.84526 29.7765 9.78897C29.7625 9.73268 29.7598 9.67418 29.7684 9.61682L31.1161 0.554446C31.1244 0.497407 31.1439 0.442574 31.1735 0.39312C31.2031 0.343668 31.2422 0.300575 31.2885 0.266337C31.3348 0.2321 31.3875 0.207397 31.4434 0.193657C31.4993 0.179918 31.5574 0.177416 31.6144 0.186294C31.6717 0.194717 31.7268 0.214393 31.7766 0.244186C31.8263 0.27398 31.8697 0.313298 31.9042 0.359904C31.9387 0.406508 31.9637 0.459481 31.9777 0.515769C31.9917 0.572056 31.9944 0.630556 31.9858 0.687913L30.627 9.73447C30.6128 9.84982 30.5536 9.9549 30.4624 10.0268C30.3712 10.0987 30.2552 10.1317 30.1398 10.1184Z" fill="white"/>
<path d="M43.4068 17.4345C43.3226 17.4802 43.2257 17.4965 43.1312 17.4809C43.0636 17.4726 42.9991 17.4479 42.9431 17.4091C42.8871 17.3703 42.8413 17.3185 42.8097 17.2582C42.7813 17.2079 42.7631 17.1525 42.7562 17.0952C42.7494 17.0378 42.7539 16.9797 42.7697 16.9242C42.7855 16.8686 42.8122 16.8167 42.8481 16.7716C42.8841 16.7264 42.9287 16.6889 42.9793 16.6611L52.1445 11.582C52.1953 11.5496 52.2521 11.528 52.3115 11.5185C52.371 11.509 52.4317 11.5118 52.49 11.5267C52.5483 11.5416 52.603 11.5683 52.6505 11.6052C52.6981 11.6421 52.7377 11.6883 52.7667 11.7411C52.7957 11.7938 52.8136 11.852 52.8193 11.9119C52.825 11.9719 52.8184 12.0323 52.7998 12.0896C52.7812 12.1469 52.7511 12.1998 52.7113 12.2449C52.6715 12.2901 52.6229 12.3267 52.5685 12.3523L43.4068 17.4345Z" fill="white"/>
<path d="M52.8661 32.0155L43.8203 30.6694C43.7586 30.6666 43.6983 30.6508 43.6432 30.6232C43.588 30.5956 43.5393 30.5567 43.5001 30.509C43.461 30.4613 43.4322 30.4059 43.4158 30.3465C43.3994 30.287 43.3957 30.2247 43.4049 30.1637C43.414 30.1026 43.4359 30.0442 43.4691 29.9922C43.5023 29.9402 43.546 29.8957 43.5975 29.8617C43.6489 29.8276 43.7069 29.8048 43.7678 29.7946C43.8286 29.7845 43.8909 29.7872 43.9506 29.8027L52.9964 31.1487C53.058 31.1516 53.1184 31.1673 53.1735 31.1949C53.2287 31.2225 53.2774 31.2614 53.3165 31.3091C53.3557 31.3568 53.3844 31.4122 53.4008 31.4717C53.4172 31.5312 53.421 31.5934 53.4118 31.6544C53.4026 31.7155 53.3807 31.7739 53.3476 31.8259C53.3144 31.8779 53.2707 31.9224 53.2192 31.9565C53.1678 31.9905 53.1097 32.0133 53.0489 32.0235C52.9881 32.0336 52.9258 32.0309 52.8661 32.0155Z" fill="white"/>
<path d="M43.5296 47.927C43.4325 48.0021 43.3097 48.036 43.1878 48.0214C43.0789 48.004 42.9797 47.9488 42.9076 47.8655L37.2288 40.9736C37.1873 40.9298 37.1553 40.8779 37.1347 40.8212C37.1141 40.7645 37.1054 40.7041 37.109 40.6439C37.1127 40.5837 37.1287 40.5248 37.156 40.471C37.1833 40.4172 37.2214 40.3696 37.2678 40.3312C37.3143 40.2927 37.3682 40.2642 37.4261 40.2474C37.484 40.2307 37.5448 40.226 37.6046 40.2336C37.6644 40.2413 37.722 40.2612 37.7738 40.2921C37.8256 40.323 37.8705 40.3642 37.9057 40.4131L43.5912 47.3045C43.6593 47.3977 43.6907 47.5127 43.6794 47.6276C43.668 47.7424 43.6147 47.8491 43.5296 47.927Z" fill="white"/>
<path d="M22.1323 23.7918C22.0853 23.7123 22.0195 23.6458 21.9407 23.5982C21.8619 23.5506 21.7727 23.5234 21.6809 23.5191H21.6222C21.5248 23.5188 21.4296 23.5481 21.349 23.6033C21.2684 23.6584 21.2063 23.7368 21.1708 23.8282C21.0781 24.032 21.047 24.2588 21.0815 24.4803C21.116 24.7017 21.2146 24.9081 21.3649 25.0735C21.5906 25.2914 21.8918 25.412 22.2045 25.4098C22.35 24.8762 22.3247 24.3101 22.1323 23.7918ZM26.4927 34.495C26.3795 34.2708 26.223 34.0717 26.0323 33.9094C25.8416 33.747 25.6206 33.6247 25.3823 33.5496C25.3192 33.5429 25.2557 33.5429 25.1927 33.5496C25.0648 33.5408 24.937 33.5675 24.8232 33.6268C24.7093 33.6861 24.6139 33.7757 24.5472 33.8859C24.4701 34.0196 24.4321 34.1724 24.4377 34.3269C24.4433 34.4813 24.4922 34.631 24.5788 34.7586C24.7227 34.9073 24.908 35.0087 25.1103 35.0492C25.3125 35.0898 25.5222 35.0677 25.7118 34.9858C26.0105 34.8944 26.28 34.7251 26.4927 34.495ZM27.084 21.4421C27.084 21.3921 27.0253 21.2558 26.7861 21.2558C26.7083 21.2569 26.631 21.2676 26.5559 21.2876C26.3934 21.3239 26.4114 21.5876 26.4566 21.8012C26.5221 22.0949 26.6317 22.3769 26.7816 22.6374C26.9096 22.4691 27.0024 22.2764 27.0544 22.071C27.1064 21.8655 27.1165 21.6516 27.084 21.4421ZM28.235 44.3891C28.0545 44.3255 27.8559 44.2619 27.6437 44.1982C24.8 43.362 22.1955 44.0301 21.7441 44.4891C21.9156 44.5982 22.5024 44.8436 24.2854 44.8618C25.6187 44.92 26.9525 44.7603 28.235 44.3891ZM28.56 50.5747C27.4768 50.1054 26.3087 49.8671 25.1295 49.8748C23.2562 49.8384 22.5114 50.202 22.3444 50.3293C22.5205 50.5065 23.3826 50.961 25.8066 51.0564C26.7495 51.1215 27.6941 50.9562 28.56 50.5747ZM16.7879 32.8861C15.357 30.3773 13.8719 27.7867 14.5986 23.0737C15.7993 15.2611 21.6989 12.5524 26.8493 12.6205C28.6179 12.6589 30.3609 13.0548 31.9746 13.7848C33.5882 14.5148 35.0397 15.564 36.2426 16.87C37.2534 18.0283 38.007 19.3905 38.453 20.8655C38.899 22.3406 39.0273 23.8945 38.8291 25.4234C38.4093 29.5138 36.4638 32.4316 34.902 34.7949C33.8187 36.4311 32.8798 37.8445 32.7263 39.1989C32.4961 41.2123 31.9545 43.1393 30.1715 44.3619C31.1916 45.0481 31.3316 45.7253 31.2819 46.1798C31.2395 46.4474 31.1406 46.7026 30.9918 46.9284C30.8431 47.1542 30.648 47.3453 30.4198 47.4887C30.7248 47.8756 30.8847 48.3584 30.8711 48.8522C30.8177 49.495 30.528 50.0946 30.0586 50.5338C30.3833 50.8104 30.6255 51.1723 30.7583 51.5791C30.844 51.8513 30.8382 52.1444 30.742 52.413C30.6457 52.6816 30.4642 52.9109 30.2257 53.0653C29.7667 53.3403 29.2594 53.5239 28.7316 53.6061C27.4271 53.9061 26.1948 54.1833 26.1857 57.0102C26.1857 59.2826 26.1451 59.3337 26.0593 59.5708H25.2153C25.301 59.1383 25.3371 59.0145 25.3416 56.9329C25.3778 53.5152 27.2059 53.0925 28.542 52.788C28.9617 52.7243 29.3667 52.5858 29.7382 52.379C29.8291 52.3266 29.8991 52.244 29.9362 52.1453C29.9732 52.0466 29.975 51.938 29.9413 51.8381C29.8289 51.5473 29.6343 51.2961 29.3816 51.1155C28.2894 51.7555 27.0308 52.0486 25.7705 51.9563C24.15 51.8927 21.4371 51.5973 21.4733 50.3565C21.4733 49.5021 22.868 49.0158 25.143 49.0567C26.6129 49.0343 28.0646 49.3861 29.3635 50.0793C29.5485 49.9294 29.7023 49.7443 29.8162 49.5345C29.9301 49.3248 30.0017 49.0944 30.027 48.8567C30.0367 48.5199 29.9133 48.1931 29.684 47.9477C28.4117 48.4623 27.0596 48.7484 25.6892 48.7931C24.3351 48.884 21.9788 48.8931 21.4146 47.9705C21.338 47.848 21.2974 47.7062 21.2974 47.5614C21.2974 47.4167 21.338 47.2749 21.4146 47.1524C21.9111 46.3161 23.9739 45.8753 26.6687 46.0298C27.7685 46.0407 28.8442 46.3551 29.7788 46.9388C30.185 46.6843 30.4107 46.4116 30.4378 46.1525C30.4649 45.8935 30.1715 45.3708 29.3184 44.9118C28.1177 45.4753 26.4927 45.8207 24.2719 45.7708C21.6087 45.7389 21.076 45.2345 20.909 44.8618C20.8517 44.7243 20.8361 44.5728 20.8642 44.4264C20.8923 44.28 20.9629 44.1452 21.067 44.0392C21.7983 43.1938 24.8135 42.5394 27.8784 43.4392C28.3736 43.581 28.8578 43.7587 29.3274 43.971C31.0246 42.9984 31.634 41.335 31.8822 39.1671C32.0583 37.6127 33.0468 36.1175 34.1933 34.3904C35.7822 31.9907 37.5833 29.2684 37.985 25.4052C38.1698 23.994 38.0531 22.5593 37.6429 21.1971C37.2327 19.8348 36.5383 18.5765 35.6062 17.5063C34.4877 16.2765 33.1347 15.2862 31.6279 14.5944C30.1211 13.9025 28.4913 13.5234 26.8357 13.4795C24.5337 13.4432 16.842 14.0476 15.4337 23.2055C14.7521 27.6186 16.0972 29.9728 17.5236 32.4634C18.3948 33.9905 19.3021 35.5721 19.7309 37.6582C20.1597 39.7443 20.9677 40.9896 22.1503 41.4713C23.333 41.9531 24.9805 41.5986 26.6326 40.4715C27.6392 39.7897 27.6437 37.9763 27.3458 36.631C27.2377 36.1634 27.0866 35.707 26.8944 35.2676C26.6139 35.5183 26.2805 35.7017 25.9194 35.8039C25.0528 36.022 24.3125 35.8039 23.8972 35.2585C23.707 34.9974 23.5978 34.6854 23.5833 34.3619C23.5689 34.0384 23.6498 33.7178 23.816 33.4405C23.9899 33.1602 24.2449 32.9403 24.5467 32.8103C24.8486 32.6803 25.1827 32.6465 25.5041 32.7134C25.8218 32.787 26.1218 32.9233 26.3868 33.1144C26.6518 33.3055 26.8765 33.5477 27.0479 33.8269C28.226 32.1089 29.1739 28.882 29.8645 26.5551C29.9368 26.3051 30.009 26.0688 30.0722 25.8461C29.4264 25.7903 28.7984 25.6038 28.226 25.2977C27.6535 24.9915 27.1484 24.5721 26.7409 24.0645C25.9987 24.8036 25.1262 25.397 24.168 25.8143C23.7611 26.0013 23.3339 26.1401 22.8951 26.2279C22.7747 26.6815 22.6239 27.1264 22.4437 27.5595C22.427 27.6169 22.3984 27.6701 22.3599 27.7156C22.3214 27.7612 22.2739 27.7981 22.2203 27.824C22.1668 27.8498 22.1084 27.8641 22.049 27.8659C21.9896 27.8676 21.9306 27.8568 21.8756 27.834C21.8207 27.8113 21.7711 27.7773 21.73 27.734C21.689 27.6908 21.6574 27.6394 21.6373 27.5831C21.6173 27.5268 21.6092 27.4669 21.6136 27.4072C21.618 27.3476 21.6347 27.2895 21.6628 27.2368C21.7882 26.9202 21.8967 26.597 21.9878 26.2688C21.6713 26.2475 21.3649 26.1479 21.0957 25.9788C20.8266 25.8097 20.6031 25.5763 20.445 25.2993C20.2869 25.0224 20.1992 24.7105 20.1896 24.3912C20.18 24.0719 20.2488 23.7552 20.3899 23.4691C20.5032 23.2109 20.6961 22.9964 20.94 22.8572C21.1839 22.718 21.4659 22.6617 21.7441 22.6965C21.9669 22.7144 22.1823 22.7855 22.3723 22.9041C22.5623 23.0227 22.7214 23.1852 22.8364 23.3782C23.1134 23.9817 23.1909 24.6587 23.0576 25.3098C23.3126 25.2388 23.5617 25.1476 23.8024 25.0371C24.7059 24.6507 25.5238 24.0867 26.2083 23.3782C25.9296 22.9626 25.7249 22.5012 25.6034 22.0148C25.4139 21.0694 25.8607 20.6104 26.3437 20.4968C27.2239 20.2968 27.6979 20.7331 27.8649 21.2103C28.0635 21.8102 27.8649 22.6147 27.2736 23.4328C27.9958 24.3145 29.0791 25.078 30.3159 25.0098C30.6996 23.7691 30.9614 23.151 31.2864 22.9237C31.4885 22.7715 31.7316 22.6843 31.9837 22.6738C32.2359 22.6632 32.4854 22.7298 32.6993 22.8647C32.8985 23.0028 33.0522 23.1978 33.1407 23.4245C33.2292 23.6513 33.2484 23.8994 33.1958 24.1372C33.119 24.5099 32.7444 25.4052 30.9659 25.7779C30.8621 26.1188 30.7583 26.4733 30.6545 26.8187C29.8375 29.6002 28.8715 32.8861 27.4948 34.6404C27.7802 35.2187 27.9969 35.8289 28.1402 36.4583C28.5194 38.1445 28.4382 40.2715 27.0795 41.1941C25.1611 42.503 23.2833 42.8848 21.8028 42.2803C20.3222 41.6758 19.3608 40.1942 18.8778 37.8491C18.4986 35.8811 17.6319 34.3586 16.7879 32.8861ZM31.2864 24.7644C32.0086 24.5326 32.3336 24.1872 32.3923 23.91C32.4102 23.8382 32.4064 23.7627 32.3815 23.6931C32.3565 23.6235 32.3116 23.5629 32.2524 23.5191C32.2022 23.4836 32.1422 23.4645 32.0809 23.4646C31.9743 23.47 31.8719 23.5081 31.7875 23.5737C31.5618 23.9429 31.3929 24.3443 31.2864 24.7644ZM28.8444 47.3069C28.1391 47.0126 27.3867 46.8494 26.6236 46.8252C23.6941 46.657 22.3715 47.2388 22.1639 47.5024C22.3354 47.6614 23.2111 48.0477 25.635 47.8887C26.725 47.8427 27.8042 47.6517 28.8444 47.3205V47.3069Z" fill="white"/>
</svg>
