<svg width="32" height="37" viewBox="0 0 32 37" fill="none" xmlns="http://www.w3.org/2000/svg">
<path d="M8.76852 22.6146C8.80393 22.6734 8.81647 22.7432 8.80378 22.8107C8.79108 22.8782 8.75402 22.9387 8.69966 22.9806L4.07305 26.1903C4.01719 26.2269 3.95008 26.2423 3.88386 26.2337C3.81236 26.2215 3.74839 26.182 3.70545 26.1235C3.67004 26.0647 3.65749 25.9949 3.67018 25.9274C3.68288 25.8599 3.71994 25.7994 3.7743 25.7575L8.40091 22.5478C8.45963 22.5116 8.52964 22.4984 8.59749 22.5107C8.66535 22.5231 8.72626 22.5601 8.76852 22.6146Z" fill="white"/>
<path d="M6.91837 16.0435C6.91588 16.0779 6.90659 16.1115 6.89101 16.1423C6.87544 16.1731 6.8539 16.2004 6.82765 16.2228C6.8014 16.2452 6.77096 16.2621 6.73811 16.2726C6.70525 16.2831 6.67065 16.287 6.63629 16.284L0.349048 15.7524C0.329835 15.7509 0.310897 15.7469 0.292689 15.7406C0.236831 15.7204 0.188862 15.6829 0.15573 15.6335C0.122598 15.5842 0.106028 15.5256 0.108418 15.4662C0.110937 15.4312 0.120437 15.397 0.136363 15.3657C0.152289 15.3344 0.174315 15.3066 0.201144 15.284C0.227972 15.2613 0.259064 15.2443 0.292577 15.2339C0.326089 15.2235 0.361346 15.2199 0.396273 15.2233L6.67985 15.7591C6.74911 15.7653 6.8131 15.7987 6.85781 15.852C6.90251 15.9053 6.92428 15.9741 6.91837 16.0435Z" fill="white"/>
<path d="M9.54516 8.83898C9.48071 8.83006 9.42187 8.79754 9.38 8.74771L6.63305 5.44967C6.58818 5.39607 6.56643 5.32683 6.57258 5.25718C6.57873 5.18754 6.61228 5.12319 6.66584 5.07829C6.7194 5.03339 6.78858 5.01163 6.85818 5.01778C6.92778 5.02393 6.99208 5.0575 7.03695 5.1111L9.79361 8.40645C9.81626 8.4328 9.8334 8.46342 9.84403 8.4965C9.85466 8.52958 9.85855 8.56445 9.8555 8.59906C9.85244 8.63368 9.84249 8.66733 9.82623 8.69803C9.80997 8.72873 9.78773 8.75587 9.76083 8.77783C9.73182 8.80365 9.69735 8.82256 9.66 8.83315C9.62265 8.84374 9.58339 8.84573 9.54516 8.83898Z" fill="white"/>
<path d="M17.9948 6.85372C17.9606 6.84869 17.9276 6.83695 17.8979 6.81916C17.8683 6.80137 17.8424 6.77789 17.8218 6.75006C17.8012 6.72223 17.7862 6.69062 17.7779 6.65701C17.7695 6.6234 17.7679 6.58848 17.773 6.55423L18.5777 1.1436C18.5826 1.10955 18.5943 1.07681 18.6119 1.04728C18.6296 1.01776 18.6529 0.99203 18.6806 0.971588C18.7082 0.951147 18.7397 0.936399 18.7731 0.928196C18.8065 0.919992 18.8412 0.918498 18.8751 0.923799C18.9094 0.928828 18.9423 0.940575 18.972 0.958364C19.0017 0.976151 19.0276 0.999626 19.0482 1.02745C19.0688 1.05528 19.0837 1.0869 19.092 1.12051C19.1004 1.15412 19.1021 1.18904 19.0969 1.22329L18.2856 6.62447C18.2772 6.69334 18.2418 6.75608 18.1874 6.79902C18.1329 6.84195 18.0637 6.86161 17.9948 6.85372Z" fill="white"/>
<path d="M25.9157 11.2224C25.8655 11.2497 25.8076 11.2594 25.7512 11.2501C25.7108 11.2451 25.6723 11.2304 25.6389 11.2072C25.6054 11.1841 25.5781 11.1532 25.5592 11.1171C25.5423 11.0871 25.5314 11.054 25.5273 11.0198C25.5232 10.9856 25.5259 10.9509 25.5354 10.9177C25.5448 10.8845 25.5607 10.8536 25.5822 10.8266C25.6037 10.7996 25.6303 10.7772 25.6605 10.7607L31.1325 7.72818C31.1628 7.70887 31.1968 7.69598 31.2322 7.6903C31.2677 7.68463 31.304 7.68629 31.3388 7.69519C31.3736 7.70409 31.4062 7.72004 31.4346 7.74205C31.4631 7.76406 31.4867 7.79167 31.504 7.82316C31.5213 7.85466 31.532 7.88937 31.5354 7.92517C31.5388 7.96096 31.5349 7.99707 31.5238 8.03127C31.5127 8.06547 31.4947 8.09703 31.4709 8.124C31.4472 8.15097 31.4181 8.17279 31.3856 8.1881L25.9157 11.2224Z" fill="white"/>
<path d="M31.5633 19.9279L26.1626 19.1242C26.1258 19.1226 26.0898 19.1132 26.0568 19.0967C26.0239 19.0802 25.9948 19.057 25.9714 19.0285C25.9481 19 25.9309 18.967 25.9211 18.9314C25.9113 18.8959 25.9091 18.8587 25.9146 18.8223C25.92 18.7859 25.9331 18.751 25.9529 18.7199C25.9727 18.6889 25.9988 18.6623 26.0295 18.642C26.0603 18.6217 26.0949 18.6081 26.1312 18.602C26.1675 18.5959 26.2047 18.5975 26.2404 18.6068L31.6411 19.4105C31.6779 19.4121 31.7139 19.4215 31.7469 19.438C31.7798 19.4545 31.8089 19.4777 31.8323 19.5062C31.8556 19.5347 31.8728 19.5677 31.8826 19.6032C31.8924 19.6388 31.8946 19.6759 31.8891 19.7124C31.8836 19.7488 31.8706 19.7837 31.8508 19.8148C31.831 19.8458 31.8049 19.8724 31.7741 19.8927C31.7434 19.913 31.7088 19.9266 31.6725 19.9327C31.6362 19.9388 31.599 19.9371 31.5633 19.9279Z" fill="white"/>
<path d="M25.9891 29.4275C25.931 29.4723 25.8577 29.4925 25.785 29.4838C25.72 29.4734 25.6608 29.4405 25.6177 29.3907L22.2272 25.2759C22.2024 25.2498 22.1833 25.2188 22.171 25.185C22.1587 25.1511 22.1535 25.1151 22.1557 25.0791C22.1579 25.0431 22.1674 25.008 22.1837 24.9759C22.2 24.9438 22.2228 24.9154 22.2505 24.8924C22.2782 24.8694 22.3104 24.8524 22.345 24.8424C22.3796 24.8324 22.4158 24.8296 22.4515 24.8342C22.4873 24.8388 22.5216 24.8506 22.5526 24.8691C22.5835 24.8875 22.6103 24.9121 22.6314 24.9413L26.0258 29.0558C26.0665 29.1114 26.0852 29.1801 26.0785 29.2487C26.0717 29.3172 26.0399 29.3809 25.9891 29.4275Z" fill="white"/>
<path d="M13.2139 15.0185C13.1859 14.9711 13.1466 14.9313 13.0996 14.9029C13.0525 14.8745 12.9992 14.8583 12.9444 14.8557H12.9094C12.8512 14.8555 12.7944 14.873 12.7463 14.906C12.6982 14.9389 12.6611 14.9857 12.6399 15.0402C12.5845 15.1619 12.566 15.2973 12.5866 15.4296C12.6072 15.5618 12.666 15.685 12.7558 15.7837C12.8905 15.9138 13.0704 15.9859 13.257 15.9845C13.3439 15.666 13.3288 15.328 13.2139 15.0185ZM15.8173 21.4088C15.7497 21.2749 15.6563 21.1561 15.5424 21.0592C15.4286 20.9622 15.2966 20.8892 15.1543 20.8444C15.1167 20.8404 15.0787 20.8404 15.0411 20.8444C14.9648 20.8391 14.8885 20.855 14.8205 20.8904C14.7525 20.9258 14.6955 20.9794 14.6557 21.0452C14.6097 21.1249 14.587 21.2162 14.5904 21.3084C14.5937 21.4006 14.6229 21.49 14.6746 21.5662C14.7605 21.655 14.8712 21.7155 14.9919 21.7397C15.1127 21.7639 15.2379 21.7507 15.351 21.7018C15.5294 21.6473 15.6903 21.5462 15.8173 21.4088ZM16.1703 13.6157C16.1703 13.5858 16.1353 13.5044 15.9925 13.5044C15.946 13.5051 15.8999 13.5115 15.855 13.5234C15.758 13.5451 15.7688 13.7025 15.7957 13.83C15.8348 14.0054 15.9003 14.1738 15.9898 14.3293C16.0662 14.2288 16.1216 14.1138 16.1527 13.9911C16.1837 13.8684 16.1897 13.7407 16.1703 13.6157ZM16.8575 27.316C16.7497 27.278 16.6312 27.24 16.5045 27.202C14.8067 26.7028 13.2517 27.1016 12.9822 27.3757C13.0846 27.4408 13.4349 27.5874 14.4994 27.5982C15.2954 27.6329 16.0918 27.5376 16.8575 27.316ZM17.0516 31.0091C16.4048 30.7289 15.7075 30.5866 15.0034 30.5912C13.885 30.5695 13.4403 30.7865 13.3406 30.8625C13.4457 30.9683 13.9604 31.2397 15.4076 31.2967C15.9706 31.3355 16.5346 31.2368 17.0516 31.0091ZM10.0231 20.4482C9.16877 18.9504 8.28212 17.4037 8.71601 14.5898C9.43288 9.92533 12.9552 8.3081 16.0302 8.3488C17.0861 8.37168 18.1268 8.60806 19.0902 9.04391C20.0536 9.47975 20.9202 10.1062 21.6384 10.8859C22.2419 11.5775 22.6918 12.3908 22.9581 13.2714C23.2244 14.1521 23.301 15.0798 23.1827 15.9927C22.932 18.4348 21.7705 20.1768 20.838 21.5879C20.1912 22.5647 19.6307 23.4086 19.539 24.2172C19.4016 25.4193 19.0782 26.5698 18.0137 27.2997C18.6227 27.7095 18.7063 28.1138 18.6767 28.3851C18.6513 28.5449 18.5923 28.6973 18.5035 28.8321C18.4147 28.9669 18.2982 29.081 18.1619 29.1666C18.344 29.3976 18.4395 29.6858 18.4314 29.9806C18.3995 30.3644 18.2265 30.7225 17.9463 30.9846C18.1401 31.1498 18.2847 31.3658 18.364 31.6087C18.4152 31.7713 18.4118 31.9462 18.3543 32.1066C18.2968 32.267 18.1885 32.4039 18.046 32.496C17.772 32.6603 17.4691 32.7699 17.154 32.8189C16.3751 32.998 15.6394 33.1636 15.634 34.8513C15.634 36.2081 15.6098 36.2386 15.5586 36.3801H15.0546C15.1058 36.1219 15.1274 36.048 15.1301 34.8052C15.1516 32.7647 16.2431 32.5123 17.0408 32.3305C17.2914 32.2925 17.5332 32.2098 17.755 32.0863C17.8093 32.055 17.8511 32.0057 17.8732 31.9468C17.8953 31.8879 17.8964 31.823 17.8762 31.7634C17.8092 31.5898 17.693 31.4398 17.5421 31.332C16.89 31.7141 16.1386 31.889 15.3861 31.8339C14.4186 31.796 12.7989 31.6196 12.8205 30.8788C12.8205 30.3687 13.6532 30.0783 15.0115 30.1027C15.8891 30.0894 16.7558 30.2994 17.5313 30.7133C17.6417 30.6238 17.7336 30.5133 17.8016 30.388C17.8695 30.2628 17.9123 30.1253 17.9274 29.9834C17.9332 29.7823 17.8596 29.5871 17.7226 29.4407C16.963 29.7479 16.1558 29.9187 15.3376 29.9454C14.5291 29.9996 13.1223 30.0051 12.7854 29.4542C12.7397 29.3811 12.7155 29.2964 12.7155 29.21C12.7155 29.1236 12.7397 29.0389 12.7854 28.9658C13.0819 28.4665 14.3135 28.2033 15.9224 28.2956C16.579 28.3021 17.2212 28.4898 17.7792 28.8383C18.0218 28.6863 18.1565 28.5235 18.1727 28.3688C18.1889 28.2142 18.0137 27.9021 17.5043 27.6281C16.7875 27.9645 15.8173 28.1708 14.4914 28.1409C12.9013 28.1219 12.5833 27.8207 12.4836 27.5982C12.4493 27.5161 12.44 27.4257 12.4568 27.3382C12.4736 27.2508 12.5157 27.1704 12.5779 27.1071C13.0145 26.6024 14.8147 26.2116 16.6446 26.7489C16.9402 26.8335 17.2294 26.9396 17.5097 27.0664C18.523 26.4857 18.8869 25.4926 19.0351 24.1982C19.1402 23.2702 19.7304 22.3775 20.4149 21.3464C21.3635 19.9136 22.4388 18.2883 22.6787 15.9818C22.789 15.1392 22.7194 14.2826 22.4744 13.4693C22.2295 12.656 21.8149 11.9048 21.2584 11.2658C20.5907 10.5316 19.7829 9.9403 18.8832 9.52725C17.9836 9.11419 17.0105 8.88783 16.0221 8.86165C14.6477 8.83994 10.0554 9.20083 9.21458 14.6685C8.80764 17.3033 9.61074 18.7089 10.4624 20.1958C10.9825 21.1076 11.5242 22.0519 11.7802 23.2974C12.0362 24.5428 12.5186 25.2863 13.2247 25.574C13.9308 25.8616 14.9145 25.6499 15.9008 24.977C16.5018 24.57 16.5045 23.4873 16.3266 22.6841C16.2621 22.4049 16.1719 22.1324 16.0571 21.8701C15.8897 22.0198 15.6906 22.1293 15.475 22.1902C14.9576 22.3205 14.5156 22.1903 14.2677 21.8646C14.1541 21.7087 14.0889 21.5225 14.0803 21.3293C14.0716 21.1362 14.12 20.9448 14.2192 20.7792C14.323 20.6119 14.4753 20.4806 14.6555 20.4029C14.8357 20.3253 15.0351 20.3051 15.2271 20.3451C15.4167 20.389 15.5959 20.4704 15.7541 20.5845C15.9123 20.6986 16.0464 20.8432 16.1488 21.0099C16.8521 19.9842 17.4181 18.0576 17.8304 16.6683C17.8735 16.5191 17.9167 16.378 17.9544 16.245C17.5688 16.2117 17.1939 16.1004 16.8521 15.9176C16.5103 15.7348 16.2088 15.4844 15.9655 15.1813C15.5223 15.6226 15.0014 15.9769 14.4294 16.226C14.1864 16.3377 13.9313 16.4205 13.6694 16.4729C13.5975 16.7438 13.5075 17.0094 13.3999 17.268C13.3899 17.3023 13.3728 17.334 13.3498 17.3612C13.3269 17.3884 13.2985 17.4104 13.2665 17.4259C13.2345 17.4413 13.1997 17.4499 13.1642 17.4509C13.1288 17.4519 13.0935 17.4455 13.0607 17.4319C13.0279 17.4184 12.9983 17.398 12.9738 17.3722C12.9493 17.3464 12.9304 17.3157 12.9184 17.2821C12.9064 17.2485 12.9016 17.2127 12.9042 17.1771C12.9069 17.1415 12.9169 17.1068 12.9337 17.0753C13.0085 16.8863 13.0733 16.6934 13.1277 16.4974C12.9387 16.4847 12.7558 16.4252 12.5951 16.3243C12.4344 16.2233 12.3009 16.0839 12.2066 15.9186C12.1122 15.7532 12.0598 15.567 12.0541 15.3764C12.0483 15.1858 12.0894 14.9967 12.1737 14.8259C12.2413 14.6717 12.3565 14.5436 12.5021 14.4605C12.6477 14.3774 12.8161 14.3438 12.9822 14.3646C13.1152 14.3752 13.2438 14.4177 13.3572 14.4885C13.4707 14.5593 13.5657 14.6564 13.6343 14.7716C13.7997 15.1319 13.846 15.5361 13.7664 15.9248C13.9187 15.8824 14.0673 15.828 14.2111 15.762C14.7505 15.5313 15.2388 15.1946 15.6475 14.7716C15.4811 14.5234 15.3589 14.248 15.2864 13.9576C15.1732 13.3932 15.44 13.1191 15.7283 13.0513C16.2539 12.9319 16.5368 13.1923 16.6365 13.4773C16.7551 13.8354 16.6365 14.3157 16.2835 14.8042C16.7147 15.3306 17.3615 15.7864 18.0999 15.7457C18.329 15.005 18.4853 14.6359 18.6793 14.5003C18.8 14.4093 18.9451 14.3573 19.0957 14.351C19.2462 14.3447 19.3952 14.3845 19.5229 14.465C19.6418 14.5475 19.7336 14.6639 19.7864 14.7992C19.8393 14.9346 19.8507 15.0828 19.8193 15.2247C19.7735 15.4473 19.5498 15.9818 18.488 16.2043C18.426 16.4078 18.364 16.6195 18.302 16.8257C17.8143 18.4864 17.2375 20.4482 16.4156 21.4956C16.586 21.8409 16.7153 22.2052 16.8009 22.581C17.0273 23.5877 16.9788 24.8576 16.1676 25.4084C15.0223 26.1899 13.9011 26.4178 13.0172 26.057C12.1332 25.6961 11.5592 24.8115 11.2709 23.4113C11.0445 22.2364 10.527 21.3274 10.0231 20.4482ZM18.6793 15.5992C19.1105 15.4608 19.3046 15.2546 19.3396 15.0891C19.3503 15.0462 19.348 15.0011 19.3331 14.9596C19.3183 14.918 19.2914 14.8819 19.2561 14.8557C19.2261 14.8345 19.1903 14.8231 19.1537 14.8232C19.09 14.8264 19.0289 14.8491 18.9785 14.8883C18.8438 15.1087 18.7429 15.3484 18.6793 15.5992ZM17.2214 29.0581C16.8003 28.8823 16.351 28.7849 15.8954 28.7704C14.1464 28.67 13.3568 29.0174 13.2328 29.1747C13.3352 29.2697 13.858 29.5004 15.3052 29.4054C15.956 29.378 16.6003 29.2639 17.2214 29.0662V29.0581Z" fill="white"/>
</svg>
