<svg width="248" height="48" viewBox="0 0 248 48" fill="none" xmlns="http://www.w3.org/2000/svg">
<path d="M68.0539 23.4686V32.0898H65.15V21.2178H67.873L68.0539 23.4686ZM67.652 26.272H66.8481C66.8481 25.515 66.9386 24.8184 67.1194 24.182C67.307 23.5389 67.5783 22.9829 67.9333 22.514C68.2951 22.0384 68.7405 21.67 69.2697 21.4087C69.7989 21.1475 70.4119 21.0168 71.1085 21.0168C71.5908 21.0168 72.033 21.0905 72.4349 21.2379C72.8368 21.3786 73.1818 21.603 73.4698 21.9111C73.7646 22.2126 73.9923 22.6078 74.1531 23.0968C74.3139 23.5791 74.3943 24.1585 74.3943 24.8351V32.0898H71.5004V25.1567C71.5004 24.6609 71.4334 24.2791 71.2994 24.0112C71.1655 23.7432 70.9746 23.5557 70.7267 23.4485C70.4855 23.3413 70.1942 23.2877 69.8525 23.2877C69.4774 23.2877 69.1492 23.3647 68.8678 23.5188C68.5932 23.6729 68.3654 23.8872 68.1845 24.1619C68.0037 24.4298 67.8697 24.7447 67.7826 25.1064C67.6955 25.4681 67.652 25.8567 67.652 26.272ZM74.123 25.9404L73.088 26.071C73.088 25.361 73.1751 24.7011 73.3493 24.0916C73.5301 23.482 73.7947 22.9461 74.1431 22.4839C74.4981 22.0216 74.9369 21.6633 75.4594 21.4087C75.9819 21.1475 76.5847 21.0168 77.268 21.0168C77.7905 21.0168 78.2661 21.0939 78.6948 21.2479C79.1236 21.3953 79.4886 21.6331 79.7901 21.9614C80.0982 22.2829 80.3327 22.7049 80.4935 23.2274C80.6609 23.7499 80.7447 24.3896 80.7447 25.1466V32.0898H77.8408V25.1466C77.8408 24.6442 77.7738 24.2624 77.6398 24.0011C77.5125 23.7332 77.325 23.549 77.0771 23.4485C76.8359 23.3413 76.5479 23.2877 76.213 23.2877C75.8646 23.2877 75.5598 23.358 75.2986 23.4987C75.0373 23.6327 74.8196 23.8203 74.6455 24.0614C74.4713 24.3026 74.3407 24.5839 74.2536 24.9055C74.1665 25.2203 74.123 25.5653 74.123 25.9404ZM88.8535 29.6381V24.7949C88.8535 24.4466 88.7965 24.1485 88.6827 23.9006C88.5688 23.6461 88.3913 23.4485 88.1501 23.3078C87.9157 23.1671 87.6109 23.0968 87.2357 23.0968C86.9142 23.0968 86.6362 23.1537 86.4017 23.2676C86.1673 23.3748 85.9864 23.5322 85.8591 23.7399C85.7319 23.9408 85.6682 24.1786 85.6682 24.4533H82.7744C82.7744 23.9911 82.8816 23.5523 83.0959 23.137C83.3103 22.7217 83.6218 22.3566 84.0304 22.0417C84.439 21.7202 84.9247 21.469 85.4874 21.2881C86.0568 21.1073 86.6931 21.0168 87.3965 21.0168C88.2405 21.0168 88.9908 21.1575 89.6473 21.4389C90.3038 21.7202 90.8196 22.1422 91.1947 22.7049C91.5765 23.2676 91.7674 23.971 91.7674 24.815V29.4673C91.7674 30.0635 91.8043 30.5525 91.878 30.9343C91.9516 31.3094 92.0588 31.6377 92.1995 31.919V32.0898H89.2755C89.1348 31.7951 89.0276 31.4267 88.954 30.9846C88.887 30.5357 88.8535 30.0869 88.8535 29.6381ZM89.2353 25.4681L89.2554 27.106H87.6377C87.2558 27.106 86.9242 27.1495 86.6429 27.2366C86.3616 27.3237 86.1304 27.4476 85.9496 27.6084C85.7687 27.7625 85.6347 27.9433 85.5477 28.151C85.4673 28.3586 85.4271 28.5864 85.4271 28.8343C85.4271 29.0821 85.484 29.3065 85.5979 29.5075C85.7118 29.7017 85.8759 29.8558 86.0903 29.9697C86.3046 30.0769 86.5558 30.1305 86.8439 30.1305C87.2793 30.1305 87.6578 30.0434 87.9793 29.8692C88.3008 29.695 88.5487 29.4807 88.7229 29.2261C88.9037 28.9716 88.9975 28.7304 89.0042 28.5027L89.7679 29.7285C89.6607 30.0032 89.5133 30.2879 89.3257 30.5826C89.1449 30.8774 88.9138 31.1554 88.6324 31.4166C88.3511 31.6712 88.0128 31.8822 87.6176 32.0497C87.2223 32.2104 86.7534 32.2908 86.2108 32.2908C85.5209 32.2908 84.8945 32.1535 84.3318 31.8788C83.7758 31.5975 83.3337 31.2123 83.0055 30.7233C82.6839 30.2276 82.5232 29.6649 82.5232 29.0352C82.5232 28.4658 82.6304 27.9601 82.8447 27.518C83.0591 27.0758 83.3739 26.7041 83.7892 26.4026C84.2113 26.0945 84.7371 25.8634 85.3668 25.7093C85.9965 25.5485 86.7266 25.4681 87.5573 25.4681H89.2353ZM96.8317 23.5389V32.0898H93.9378V21.2178H96.6508L96.8317 23.5389ZM96.4097 26.272H95.6259C95.6259 25.4681 95.7297 24.7447 95.9374 24.1016C96.1451 23.4518 96.4364 22.8992 96.8116 22.4437C97.1867 21.9815 97.6322 21.6298 98.148 21.3886C98.6705 21.1408 99.2533 21.0168 99.8963 21.0168C100.405 21.0168 100.871 21.0905 101.293 21.2379C101.715 21.3853 102.077 21.6197 102.378 21.9413C102.686 22.2628 102.921 22.6882 103.082 23.2174C103.249 23.7466 103.333 24.393 103.333 25.1567V32.0898H100.419V25.1466C100.419 24.6643 100.352 24.2892 100.218 24.0212C100.084 23.7533 99.8863 23.5657 99.625 23.4585C99.3705 23.3446 99.0557 23.2877 98.6805 23.2877C98.292 23.2877 97.9537 23.3647 97.6657 23.5188C97.3843 23.6729 97.1499 23.8872 96.9623 24.1619C96.7814 24.4298 96.6441 24.7447 96.5503 25.1064C96.4565 25.4681 96.4097 25.8567 96.4097 26.272ZM112.416 21.2178H115.039V31.7281C115.039 32.7195 114.818 33.5602 114.376 34.2502C113.94 34.9469 113.331 35.4727 112.547 35.8277C111.763 36.1895 110.852 36.3703 109.814 36.3703C109.358 36.3703 108.876 36.31 108.367 36.1895C107.864 36.0689 107.382 35.8813 106.92 35.6268C106.464 35.3722 106.083 35.0507 105.774 34.6622L107.051 32.954C107.386 33.3425 107.774 33.644 108.216 33.8583C108.658 34.0794 109.147 34.1899 109.683 34.1899C110.206 34.1899 110.648 34.0928 111.01 33.8985C111.371 33.7109 111.649 33.4329 111.844 33.0645C112.038 32.7028 112.135 32.264 112.135 31.7482V23.7298L112.416 21.2178ZM105.101 26.7844V26.5734C105.101 25.7428 105.202 24.9892 105.403 24.3126C105.61 23.6293 105.902 23.0432 106.277 22.5542C106.659 22.0652 107.121 21.6867 107.664 21.4188C108.206 21.1508 108.819 21.0168 109.502 21.0168C110.226 21.0168 110.832 21.1508 111.321 21.4188C111.81 21.6867 112.212 22.0685 112.527 22.5642C112.842 23.0533 113.086 23.6327 113.26 24.3026C113.441 24.9657 113.582 25.6926 113.682 26.483V26.9452C113.582 27.7022 113.431 28.4055 113.23 29.0553C113.029 29.7051 112.765 30.2745 112.436 30.7635C112.108 31.2458 111.7 31.6209 111.211 31.8889C110.728 32.1568 110.152 32.2908 109.482 32.2908C108.812 32.2908 108.206 32.1535 107.664 31.8788C107.128 31.6042 106.669 31.219 106.287 30.7233C105.905 30.2276 105.61 29.6448 105.403 28.9749C105.202 28.3051 105.101 27.5749 105.101 26.7844ZM107.995 26.5734V26.7844C107.995 27.2333 108.039 27.6519 108.126 28.0405C108.213 28.429 108.347 28.774 108.528 29.0754C108.715 29.3702 108.946 29.6013 109.221 29.7687C109.502 29.9295 109.834 30.0099 110.216 30.0099C110.745 30.0099 111.177 29.8994 111.512 29.6783C111.847 29.4505 112.098 29.1391 112.266 28.7438C112.433 28.3486 112.53 27.8931 112.557 27.3773V26.061C112.544 25.639 112.487 25.2605 112.386 24.9255C112.286 24.5839 112.145 24.2925 111.964 24.0514C111.783 23.8102 111.549 23.6226 111.261 23.4887C110.973 23.3547 110.631 23.2877 110.236 23.2877C109.854 23.2877 109.522 23.3748 109.241 23.549C108.966 23.7164 108.735 23.9475 108.548 24.2423C108.367 24.537 108.23 24.8854 108.136 25.2873C108.042 25.6825 107.995 26.1112 107.995 26.5734ZM121.781 30.03C122.136 30.03 122.451 29.963 122.726 29.829C123 29.6883 123.215 29.4941 123.369 29.2462C123.529 28.9917 123.613 28.6936 123.62 28.3519H126.343C126.336 29.1156 126.132 29.7955 125.73 30.3917C125.328 30.9812 124.789 31.4468 124.112 31.7884C123.436 32.1233 122.679 32.2908 121.841 32.2908C120.997 32.2908 120.26 32.1501 119.631 31.8688C119.008 31.5874 118.489 31.1989 118.073 30.7032C117.658 30.2008 117.347 29.618 117.139 28.9548C116.931 28.285 116.827 27.5682 116.827 26.8045V26.5131C116.827 25.7428 116.931 25.026 117.139 24.3629C117.347 23.693 117.658 23.1102 118.073 22.6145C118.489 22.1121 119.008 21.7202 119.631 21.4389C120.254 21.1575 120.984 21.0168 121.821 21.0168C122.712 21.0168 123.493 21.1877 124.163 21.5293C124.839 21.8709 125.368 22.3599 125.75 22.9963C126.139 23.626 126.336 24.3729 126.343 25.237H123.62C123.613 24.8753 123.536 24.5471 123.389 24.2523C123.248 23.9576 123.04 23.7231 122.766 23.549C122.498 23.3681 122.166 23.2777 121.771 23.2777C121.349 23.2777 121.004 23.3681 120.736 23.549C120.468 23.7231 120.26 23.9643 120.113 24.2724C119.966 24.5739 119.862 24.9188 119.802 25.3074C119.748 25.6892 119.721 26.0911 119.721 26.5131V26.8045C119.721 27.2266 119.748 27.6318 119.802 28.0204C119.855 28.4089 119.956 28.7539 120.103 29.0553C120.257 29.3568 120.468 29.5946 120.736 29.7687C121.004 29.9429 121.352 30.03 121.781 30.03ZM127.559 26.7643V26.5533C127.559 25.7562 127.673 25.0227 127.9 24.3528C128.128 23.6762 128.46 23.0901 128.895 22.5944C129.331 22.0987 129.866 21.7135 130.503 21.4389C131.139 21.1575 131.869 21.0168 132.693 21.0168C133.517 21.0168 134.251 21.1575 134.894 21.4389C135.537 21.7135 136.076 22.0987 136.512 22.5944C136.954 23.0901 137.289 23.6762 137.516 24.3528C137.744 25.0227 137.858 25.7562 137.858 26.5533V26.7643C137.858 27.5548 137.744 28.2883 137.516 28.9649C137.289 29.6348 136.954 30.2209 136.512 30.7233C136.076 31.219 135.54 31.6042 134.904 31.8788C134.268 32.1535 133.537 32.2908 132.713 32.2908C131.889 32.2908 131.156 32.1535 130.513 31.8788C129.877 31.6042 129.337 31.219 128.895 30.7233C128.46 30.2209 128.128 29.6348 127.9 28.9649C127.673 28.2883 127.559 27.5548 127.559 26.7643ZM130.453 26.5533V26.7643C130.453 27.2199 130.493 27.6452 130.573 28.0405C130.654 28.4357 130.781 28.784 130.955 29.0855C131.136 29.3802 131.37 29.6113 131.658 29.7788C131.946 29.9462 132.298 30.03 132.713 30.03C133.115 30.03 133.46 29.9462 133.748 29.7788C134.036 29.6113 134.268 29.3802 134.442 29.0855C134.616 28.784 134.743 28.4357 134.824 28.0405C134.911 27.6452 134.954 27.2199 134.954 26.7643V26.5533C134.954 26.1112 134.911 25.6959 134.824 25.3074C134.743 24.9121 134.613 24.5638 134.432 24.2624C134.258 23.9542 134.026 23.7131 133.738 23.5389C133.45 23.3647 133.102 23.2777 132.693 23.2777C132.285 23.2777 131.936 23.3647 131.648 23.5389C131.367 23.7131 131.136 23.9542 130.955 24.2624C130.781 24.5638 130.654 24.9121 130.573 25.3074C130.493 25.6959 130.453 26.1112 130.453 26.5533ZM146.057 29.7185V16.656H148.971V32.0898H146.349L146.057 29.7185ZM139.184 26.7844V26.5734C139.184 25.7428 139.278 24.9892 139.466 24.3126C139.653 23.6293 139.928 23.0432 140.29 22.5542C140.651 22.0652 141.097 21.6867 141.626 21.4188C142.155 21.1508 142.758 21.0168 143.435 21.0168C144.071 21.0168 144.627 21.1508 145.103 21.4188C145.585 21.6867 145.994 22.0685 146.329 22.5642C146.67 23.0533 146.945 23.6327 147.153 24.3026C147.36 24.9657 147.511 25.6926 147.605 26.483V26.9452C147.511 27.7022 147.36 28.4055 147.153 29.0553C146.945 29.7051 146.67 30.2745 146.329 30.7635C145.994 31.2458 145.585 31.6209 145.103 31.8889C144.62 32.1568 144.058 32.2908 143.415 32.2908C142.738 32.2908 142.135 32.1535 141.606 31.8788C141.084 31.6042 140.641 31.219 140.28 30.7233C139.925 30.2276 139.653 29.6448 139.466 28.9749C139.278 28.3051 139.184 27.5749 139.184 26.7844ZM142.078 26.5734V26.7844C142.078 27.2333 142.112 27.6519 142.179 28.0405C142.252 28.429 142.37 28.774 142.53 29.0754C142.698 29.3702 142.912 29.6013 143.174 29.7687C143.441 29.9295 143.766 30.0099 144.148 30.0099C144.644 30.0099 145.053 29.8994 145.374 29.6783C145.696 29.4505 145.94 29.1391 146.108 28.7438C146.282 28.3486 146.382 27.8931 146.409 27.3773V26.061C146.389 25.639 146.329 25.2605 146.228 24.9255C146.134 24.5839 145.994 24.2925 145.806 24.0514C145.625 23.8102 145.397 23.6226 145.123 23.4887C144.855 23.3547 144.537 23.2877 144.168 23.2877C143.793 23.2877 143.472 23.3748 143.204 23.549C142.936 23.7164 142.718 23.9475 142.551 24.2423C142.39 24.537 142.269 24.8854 142.189 25.2873C142.115 25.6825 142.078 26.1112 142.078 26.5734ZM154.287 21.2178V32.0898H151.383V21.2178H154.287ZM151.202 18.3842C151.202 17.9622 151.349 17.6139 151.644 17.3392C151.939 17.0646 152.334 16.9273 152.83 16.9273C153.319 16.9273 153.711 17.0646 154.005 17.3392C154.307 17.6139 154.458 17.9622 154.458 18.3842C154.458 18.8063 154.307 19.1546 154.005 19.4292C153.711 19.7039 153.319 19.8412 152.83 19.8412C152.334 19.8412 151.939 19.7039 151.644 19.4292C151.349 19.1546 151.202 18.8063 151.202 18.3842ZM159.512 23.5389V32.0898H156.618V21.2178H159.331L159.512 23.5389ZM159.09 26.272H158.306C158.306 25.4681 158.41 24.7447 158.617 24.1016C158.825 23.4518 159.117 22.8992 159.492 22.4437C159.867 21.9815 160.312 21.6298 160.828 21.3886C161.351 21.1408 161.933 21.0168 162.576 21.0168C163.086 21.0168 163.551 21.0905 163.973 21.2379C164.395 21.3853 164.757 21.6197 165.058 21.9413C165.366 22.2628 165.601 22.6882 165.762 23.2174C165.929 23.7466 166.013 24.393 166.013 25.1567V32.0898H163.099V25.1466C163.099 24.6643 163.032 24.2892 162.898 24.0212C162.764 23.7533 162.566 23.5657 162.305 23.4585C162.051 23.3446 161.736 23.2877 161.361 23.2877C160.972 23.2877 160.634 23.3647 160.346 23.5188C160.064 23.6729 159.83 23.8872 159.642 24.1619C159.461 24.4298 159.324 24.7447 159.23 25.1064C159.137 25.4681 159.09 25.8567 159.09 26.272ZM175.096 21.2178H177.719V31.7281C177.719 32.7195 177.498 33.5602 177.056 34.2502C176.62 34.9469 176.011 35.4727 175.227 35.8277C174.443 36.1895 173.532 36.3703 172.494 36.3703C172.038 36.3703 171.556 36.31 171.047 36.1895C170.545 36.0689 170.062 35.8813 169.6 35.6268C169.145 35.3722 168.763 35.0507 168.455 34.6622L169.731 32.954C170.066 33.3425 170.454 33.644 170.896 33.8583C171.338 34.0794 171.827 34.1899 172.363 34.1899C172.886 34.1899 173.328 34.0928 173.69 33.8985C174.051 33.7109 174.329 33.4329 174.524 33.0645C174.718 32.7028 174.815 32.264 174.815 31.7482V23.7298L175.096 21.2178ZM167.781 26.7844V26.5734C167.781 25.7428 167.882 24.9892 168.083 24.3126C168.29 23.6293 168.582 23.0432 168.957 22.5542C169.339 22.0652 169.801 21.6867 170.344 21.4188C170.886 21.1508 171.499 21.0168 172.182 21.0168C172.906 21.0168 173.512 21.1508 174.001 21.4188C174.49 21.6867 174.892 22.0685 175.207 22.5642C175.522 23.0533 175.766 23.6327 175.94 24.3026C176.121 24.9657 176.262 25.6926 176.362 26.483V26.9452C176.262 27.7022 176.111 28.4055 175.91 29.0553C175.709 29.7051 175.445 30.2745 175.116 30.7635C174.788 31.2458 174.38 31.6209 173.891 31.8889C173.408 32.1568 172.832 32.2908 172.162 32.2908C171.492 32.2908 170.886 32.1535 170.344 31.8788C169.808 31.6042 169.349 31.219 168.967 30.7233C168.585 30.2276 168.29 29.6448 168.083 28.9749C167.882 28.3051 167.781 27.5749 167.781 26.7844ZM170.675 26.5734V26.7844C170.675 27.2333 170.719 27.6519 170.806 28.0405C170.893 28.429 171.027 28.774 171.208 29.0754C171.395 29.3702 171.626 29.6013 171.901 29.7687C172.182 29.9295 172.514 30.0099 172.896 30.0099C173.425 30.0099 173.857 29.8994 174.192 29.6783C174.527 29.4505 174.778 29.1391 174.946 28.7438C175.113 28.3486 175.21 27.8931 175.237 27.3773V26.061C175.224 25.639 175.167 25.2605 175.066 24.9255C174.966 24.5839 174.825 24.2925 174.644 24.0514C174.463 23.8102 174.229 23.6226 173.941 23.4887C173.653 23.3547 173.311 23.2877 172.916 23.2877C172.534 23.2877 172.202 23.3748 171.921 23.549C171.646 23.7164 171.415 23.9475 171.228 24.2423C171.047 24.537 170.91 24.8854 170.816 25.2873C170.722 25.6825 170.675 26.1112 170.675 26.5734ZM192.892 28.2615C192.892 28.0003 192.851 27.7658 192.771 27.5581C192.697 27.3438 192.557 27.1495 192.349 26.9754C192.141 26.7945 191.85 26.617 191.475 26.4428C191.1 26.2686 190.614 26.0878 190.018 25.9002C189.355 25.6859 188.725 25.4447 188.129 25.1767C187.539 24.9088 187.017 24.5973 186.561 24.2423C186.112 23.8805 185.757 23.4619 185.496 22.9863C185.242 22.5107 185.114 21.958 185.114 21.3283C185.114 20.7187 185.248 20.1661 185.516 19.6704C185.784 19.168 186.159 18.7393 186.642 18.3842C187.124 18.0225 187.693 17.7445 188.35 17.5502C189.013 17.356 189.74 17.2588 190.53 17.2588C191.609 17.2588 192.55 17.4531 193.354 17.8416C194.158 18.2302 194.781 18.7627 195.223 19.4393C195.672 20.1159 195.896 20.8896 195.896 21.7604H192.902C192.902 21.3317 192.811 20.9565 192.63 20.635C192.456 20.3068 192.188 20.0489 191.826 19.8613C191.471 19.6737 191.023 19.58 190.48 19.58C189.957 19.58 189.522 19.6603 189.174 19.8211C188.825 19.9752 188.564 20.1862 188.39 20.4541C188.216 20.7154 188.129 21.0101 188.129 21.3384C188.129 21.5862 188.189 21.8106 188.31 22.0116C188.437 22.2126 188.624 22.4001 188.872 22.5743C189.12 22.7485 189.425 22.9126 189.787 23.0666C190.148 23.2207 190.567 23.3714 191.043 23.5188C191.84 23.76 192.54 24.0313 193.143 24.3327C193.752 24.6342 194.261 24.9724 194.67 25.3476C195.079 25.7227 195.387 26.1481 195.594 26.6237C195.802 27.0993 195.906 27.6385 195.906 28.2414C195.906 28.8778 195.782 29.4472 195.534 29.9496C195.286 30.452 194.928 30.8774 194.459 31.2257C193.99 31.574 193.431 31.8386 192.781 32.0195C192.131 32.2004 191.404 32.2908 190.601 32.2908C189.877 32.2908 189.164 32.197 188.46 32.0095C187.757 31.8152 187.117 31.5238 186.541 31.1353C185.972 30.7467 185.516 30.251 185.175 29.6482C184.833 29.0453 184.662 28.3319 184.662 27.5079H187.687C187.687 27.9634 187.757 28.3486 187.898 28.6634C188.038 28.9783 188.236 29.2328 188.49 29.4271C188.752 29.6214 189.06 29.762 189.415 29.8491C189.777 29.9362 190.172 29.9797 190.601 29.9797C191.123 29.9797 191.552 29.9061 191.887 29.7587C192.228 29.6113 192.48 29.407 192.64 29.1457C192.808 28.8845 192.892 28.5898 192.892 28.2615ZM202.266 30.03C202.621 30.03 202.936 29.963 203.211 29.829C203.486 29.6883 203.7 29.4941 203.854 29.2462C204.015 28.9917 204.099 28.6936 204.105 28.3519H206.828C206.822 29.1156 206.617 29.7955 206.215 30.3917C205.813 30.9812 205.274 31.4468 204.598 31.7884C203.921 32.1233 203.164 32.2908 202.327 32.2908C201.483 32.2908 200.746 32.1501 200.116 31.8688C199.493 31.5874 198.974 31.1989 198.559 30.7032C198.143 30.2008 197.832 29.618 197.624 28.9548C197.417 28.285 197.313 27.5682 197.313 26.8045V26.5131C197.313 25.7428 197.417 25.026 197.624 24.3629C197.832 23.693 198.143 23.1102 198.559 22.6145C198.974 22.1121 199.493 21.7202 200.116 21.4389C200.739 21.1575 201.469 21.0168 202.307 21.0168C203.198 21.0168 203.978 21.1877 204.648 21.5293C205.324 21.8709 205.854 22.3599 206.235 22.9963C206.624 23.626 206.822 24.3729 206.828 25.237H204.105C204.099 24.8753 204.021 24.5471 203.874 24.2523C203.733 23.9576 203.526 23.7231 203.251 23.549C202.983 23.3681 202.652 23.2777 202.256 23.2777C201.834 23.2777 201.489 23.3681 201.221 23.549C200.953 23.7231 200.746 23.9643 200.598 24.2724C200.451 24.5739 200.347 24.9188 200.287 25.3074C200.233 25.6892 200.207 26.0911 200.207 26.5131V26.8045C200.207 27.2266 200.233 27.6318 200.287 28.0204C200.341 28.4089 200.441 28.7539 200.588 29.0553C200.742 29.3568 200.953 29.5946 201.221 29.7687C201.489 29.9429 201.838 30.03 202.266 30.03ZM211.33 16.656V32.0898H208.436V16.656H211.33ZM210.918 26.272H210.124C210.131 25.515 210.231 24.8184 210.425 24.182C210.62 23.5389 210.898 22.9829 211.259 22.514C211.621 22.0384 212.053 21.67 212.556 21.4087C213.065 21.1475 213.627 21.0168 214.244 21.0168C214.78 21.0168 215.265 21.0939 215.701 21.2479C216.143 21.3953 216.521 21.6365 216.836 21.9714C217.158 22.2996 217.406 22.7317 217.58 23.2676C217.754 23.8035 217.841 24.4533 217.841 25.2169V32.0898H214.927V25.1968C214.927 24.7145 214.857 24.3361 214.716 24.0614C214.582 23.7801 214.384 23.5825 214.123 23.4686C213.869 23.348 213.554 23.2877 213.179 23.2877C212.763 23.2877 212.408 23.3647 212.114 23.5188C211.826 23.6729 211.594 23.8872 211.42 24.1619C211.246 24.4298 211.119 24.7447 211.038 25.1064C210.958 25.4681 210.918 25.8567 210.918 26.272ZM219.579 26.7643V26.5533C219.579 25.7562 219.693 25.0227 219.921 24.3528C220.149 23.6762 220.48 23.0901 220.916 22.5944C221.351 22.0987 221.887 21.7135 222.523 21.4389C223.16 21.1575 223.89 21.0168 224.714 21.0168C225.538 21.0168 226.271 21.1575 226.914 21.4389C227.557 21.7135 228.097 22.0987 228.532 22.5944C228.974 23.0901 229.309 23.6762 229.537 24.3528C229.765 25.0227 229.879 25.7562 229.879 26.5533V26.7643C229.879 27.5548 229.765 28.2883 229.537 28.9649C229.309 29.6348 228.974 30.2209 228.532 30.7233C228.097 31.219 227.561 31.6042 226.924 31.8788C226.288 32.1535 225.558 32.2908 224.734 32.2908C223.91 32.2908 223.177 32.1535 222.533 31.8788C221.897 31.6042 221.358 31.219 220.916 30.7233C220.48 30.2209 220.149 29.6348 219.921 28.9649C219.693 28.2883 219.579 27.5548 219.579 26.7643ZM222.473 26.5533V26.7643C222.473 27.2199 222.513 27.6452 222.594 28.0405C222.674 28.4357 222.801 28.784 222.976 29.0855C223.156 29.3802 223.391 29.6113 223.679 29.7788C223.967 29.9462 224.319 30.03 224.734 30.03C225.136 30.03 225.481 29.9462 225.769 29.7788C226.057 29.6113 226.288 29.3802 226.462 29.0855C226.636 28.784 226.764 28.4357 226.844 28.0405C226.931 27.6452 226.975 27.2199 226.975 26.7643V26.5533C226.975 26.1112 226.931 25.6959 226.844 25.3074C226.764 24.9121 226.633 24.5638 226.452 24.2624C226.278 23.9542 226.047 23.7131 225.759 23.5389C225.471 23.3647 225.122 23.2777 224.714 23.2777C224.305 23.2777 223.957 23.3647 223.669 23.5389C223.388 23.7131 223.156 23.9542 222.976 24.2624C222.801 24.5638 222.674 24.9121 222.594 25.3074C222.513 25.6959 222.473 26.1112 222.473 26.5533ZM231.195 26.7643V26.5533C231.195 25.7562 231.309 25.0227 231.537 24.3528C231.764 23.6762 232.096 23.0901 232.531 22.5944C232.967 22.0987 233.503 21.7135 234.139 21.4389C234.775 21.1575 235.506 21.0168 236.329 21.0168C237.153 21.0168 237.887 21.1575 238.53 21.4389C239.173 21.7135 239.712 22.0987 240.148 22.5944C240.59 23.0901 240.925 23.6762 241.153 24.3528C241.38 25.0227 241.494 25.7562 241.494 26.5533V26.7643C241.494 27.5548 241.38 28.2883 241.153 28.9649C240.925 29.6348 240.59 30.2209 240.148 30.7233C239.712 31.219 239.176 31.6042 238.54 31.8788C237.904 32.1535 237.174 32.2908 236.35 32.2908C235.526 32.2908 234.792 32.1535 234.149 31.8788C233.513 31.6042 232.973 31.219 232.531 30.7233C232.096 30.2209 231.764 29.6348 231.537 28.9649C231.309 28.2883 231.195 27.5548 231.195 26.7643ZM234.089 26.5533V26.7643C234.089 27.2199 234.129 27.6452 234.209 28.0405C234.29 28.4357 234.417 28.784 234.591 29.0855C234.772 29.3802 235.006 29.6113 235.295 29.7788C235.583 29.9462 235.934 30.03 236.35 30.03C236.751 30.03 237.096 29.9462 237.385 29.7788C237.673 29.6113 237.904 29.3802 238.078 29.0855C238.252 28.784 238.379 28.4357 238.46 28.0405C238.547 27.6452 238.59 27.2199 238.59 26.7643V26.5533C238.59 26.1112 238.547 25.6959 238.46 25.3074C238.379 24.9121 238.249 24.5638 238.068 24.2624C237.894 23.9542 237.663 23.7131 237.374 23.5389C237.086 23.3647 236.738 23.2777 236.329 23.2777C235.921 23.2777 235.573 23.3647 235.284 23.5389C235.003 23.7131 234.772 23.9542 234.591 24.2624C234.417 24.5638 234.29 24.9121 234.209 25.3074C234.129 25.6959 234.089 26.1112 234.089 26.5533ZM246.327 16.656V32.0898H243.423V16.656H246.327Z" fill="white"/>
<path d="M51.0986 0H0.312472C0.140022 0 0 0.136436 0 0.304747V47.6953C0 47.8636 0.140022 48 0.312472 48H51.0986C51.2711 48 51.4103 47.8636 51.4103 47.6953V0.304747C51.4103 0.136436 51.2711 0 51.0986 0Z" fill="#0EC5D7"/>
<path d="M13.5875 10.5635V37.4366" stroke="white" stroke-width="4.52988"/>
<path d="M21.8879 10.5635V23.9492" stroke="white" stroke-width="4.52129"/>
<path d="M28.2112 10.5635V15.1101H36.1318L41.8775 26.6281H47.051L38.8344 10.5635H28.2112Z" fill="white"/>
<path d="M30.5648 20.0391V37.9709" stroke="white" stroke-width="5.23303"/>
</svg>
